<?xml version="1.0" standalone="no"?>
  <!DOCTYPE svg PUBLIC "-//W3C//DTD SVG 1.1//EN" "http://www.w3.org/Graphics/SVG/1.1/DTD/svg11.dtd" >
  <svg>
  <metadata>
  Created by font-carrier
  </metadata>
  <defs>
  <font id="Bartina-Light" horiz-adv-x="1600" vert-adv-y="1600" >
    <font-face
      
      font-family="Bartina Light"
      
      font-weight="400"
      
      font-stretch="normal"
      
      units-per-em="2048"
      
      ascent="1723"
      
      descent="-428"
      
    />
      <missing-glyph />

      

      
      <glyph glyph-name="uni21" unicode="&#x21;" d="M86 4L32 4Q-1 4-3 40L-3 94Q-3 128 32 130L86 130Q118 130 120 94L120 40Q120 6 86 4M100 299L18 299L-3 648L-3 1439L120 1439L120 650L100 299Z"  horiz-adv-x="312" vert-adv-y="2048"  />

      
      <glyph glyph-name="uni22" unicode="&#x22;" d="M484 1393L484 1325Q484 1312 479 1303L476 1298Q475 1296 475 1296L394 1154L383 1154L429 1275L368 1275Q323 1275 319 1325L319 1393Q319 1439 368 1443L435 1443Q480 1443 484 1393M158 1392L158 1324Q158 1311 153 1302L150 1297Q149 1295 149 1295L68 1153L57 1153L103 1274L42 1274Q-3 1274-7 1324L-7 1392Q-7 1438 42 1442L109 1442Q154 1442 158 1392Z"  horiz-adv-x="632" vert-adv-y="2048"  />

      
      <glyph glyph-name="uni23" unicode="&#x23;" d="M877 1069L826 944L958 944L907 817L775 817L712 661L844 661L793 534L660 534L524 196L461 39L446 4L313 4L369 143L527 534L349 534L213 196L150 39L135 4L2 4L58 143L216 534L88 534L148 661L268 661L331 817L211 817L262 944L382 944L503 1244L566 1400L582 1439L715 1439L658 1297L566 1069L515 944L693 944L814 1244L877 1400L893 1439L1026 1439L969 1297L877 1069M578 661L642 817L464 817L401 661L578 661Z"  horiz-adv-x="1159" vert-adv-y="2048"  />

      
      <glyph glyph-name="uni24" unicode="&#x24;" d="M516 722Q573 676 606 610Q639 544 639 464L639 430Q639 347 603.50 278.50Q568 210 506 165Q462 129 383 109L383 4L261 4L261 109Q182 129 138 165Q76 211 40.50 276.50Q5 342 5 409L106 409Q106 359 145.50 305.50Q185 252 261 214L261 692Q182 712 138 747Q133 751 129 754Q71 800 38 866Q5 932 5 1012L5 1015Q5 1098 40.50 1166.50Q76 1235 138 1281Q182 1316 261 1336L261 1439L383 1439L383 1336Q462 1316 506 1281Q568 1234 603.50 1169Q639 1104 639 1036L538 1036Q538 1086 498.50 1140Q459 1194 383 1231L383 784Q462 764 507 729Q511 726 516 722M106 1015L106 1012Q106 946 145.50 889.50Q185 833 261 797L261 1231Q185 1194 145.50 1137.50Q106 1081 106 1015M538 430L538 464Q538 530 498.50 586.50Q459 643 383 679L383 214Q459 251 498.50 307.50Q538 364 538 430Z"  horiz-adv-x="809" vert-adv-y="2048"  />

      
      <glyph glyph-name="uni25" unicode="&#x25;" d="M138 1432Q195 1432 233.50 1392.50Q272 1353 272 1294L272 1089Q272 1030 233.50 990.50Q195 951 138 951Q80 951 42 990.50Q4 1030 4 1089L4 1294Q4 1353 42 1392.50Q80 1432 138 1432M190 1089L190 1294Q190 1314 173.50 1330.50Q157 1347 138 1347Q118 1347 102 1330.50Q86 1314 86 1294L86 1089Q86 1069 102 1052.50Q118 1036 138 1036Q157 1036 173.50 1052.50Q190 1069 190 1089M603 481Q661 481 699 441.50Q737 402 737 343L737 139Q737 80 699 40.50Q661 1 603 1Q546 1 507.50 40.50Q469 80 469 139L469 343Q469 402 507.50 441.50Q546 481 603 481M655 139L655 343Q655 364 639 380.50Q623 397 603 397Q584 397 567.50 380.50Q551 364 551 343L551 139Q551 119 567.50 102Q584 85 603 85Q623 85 639 102Q655 119 655 139M727 1439L670 1297L578 1069L225 196L162 40L147 4L14 4L70 143L162 370L515 1244L578 1400L594 1439L727 1439Z"  horiz-adv-x="913" vert-adv-y="2048"  />

      
      <glyph glyph-name="uni26" unicode="&#x26;" d="M801 141L885 6L757 6L733 45L664 155Q614 96 584 76Q491 5 370 5Q248 5 155 76Q83 129 42 208.50Q1 288 1 384L1 431Q1 514 31.50 584Q62 654 117 707L121 711Q121 711 123 713Q124 714 126 716Q127 717 128 718Q130 719 133 721Q154 745 269 790L22 1186Q44 1254 99 1316Q124 1345 155 1368Q248 1439 370 1439Q491 1439 584 1368Q731 1258 738 1062Q734 903 631 798L625 792Q616 781 574 747L575 747Q549 724 456 695L726 262L801 141M164 1181L386 824L387 822L398 805L431 817L431 817Q513 836 568 903.50Q623 971 626 1062Q622 1167 550.50 1240Q479 1313 380 1313Q249 1313 164 1181M380 131Q448 131 506.50 168.50Q565 206 601 273L346 682Q321 678 316 676Q238 653 185.50 585.50Q133 518 133 431L133 384Q133 281 206.50 206Q280 131 380 131Z"  horiz-adv-x="996" vert-adv-y="2048"  />

      
      <glyph glyph-name="uni27" unicode="&#x27;" d="M156 1392L156 1327Q156 1315 151 1307L148 1302Q147 1300 147 1300L49 1095L7 1095L58 1239L46 1239Q25 1269 13 1287.50Q1 1306 1 1327L1 1392Q1 1435 46 1439L110 1439Q152 1439 156 1392Z"  horiz-adv-x="287" vert-adv-y="2048"  />

      
      <glyph glyph-name="uni28" unicode="&#x28;" d="M100 1070L100 296Q100 219 149.50 130Q199 41 270-21Q341-83 409-86L409-142Q299-140 207.50-82Q116-24 60 75Q4 174 4 296L4 1070Q4 1193 60 1292Q116 1391 207.50 1449Q299 1507 409 1508L409 1446Q341 1443 270 1383Q199 1323 149.50 1235.50Q100 1148 100 1070Z"  horiz-adv-x="526" vert-adv-y="2048"  />

      
      <glyph glyph-name="uni29" unicode="&#x29;" d="M312 1069Q312 1146 262.50 1234Q213 1322 141.50 1382.50Q70 1443 2 1446L2 1508Q112 1507 204 1449Q296 1391 352.50 1291.50Q409 1192 409 1069L409 293Q409 170 352.50 70.50Q296-29 204-87Q112-145 2-147L2-91Q71-88 142-25.50Q213 37 262.50 126Q312 215 312 293L312 1069Z"  horiz-adv-x="584" vert-adv-y="2048"  />

      
      <glyph glyph-name="uni2a" unicode="&#x2a;" d="M319 1341L203 1256L319 1170L290 1129L185 1206L185 1073L136 1073L136 1206L31 1129L2 1170L118 1256L2 1341L31 1383L136 1306L136 1438L185 1438L185 1306L290 1383L319 1341Z"  horiz-adv-x="471" vert-adv-y="2048"  />

      
      <glyph glyph-name="uni2b" unicode="&#x2b;" d="M711 731L711 602L416 602L416 289L295 289L295 602L1 602L1 731L295 731L295 1043L416 1043L416 731L711 731Z"  horiz-adv-x="859" vert-adv-y="2048"  />

      
      <glyph glyph-name="uni2c" unicode="&#x2c;" d="M164 110L164 42Q164 29 159 20L156 15Q155 13 155 12L61-172L46-172L90-8L48-8Q3-8-1 42L-1 110Q-1 156 48 160L115 160Q160 160 164 110Z"  horiz-adv-x="250" vert-adv-y="2048"  />

      
      <glyph glyph-name="uni2d" unicode="&#x2d;" d="M-4 597L-4 724L456 724L456 597L-4 597Z"  horiz-adv-x="595" vert-adv-y="2048"  />

      
      <glyph glyph-name="uniad" unicode="&#xad;" d="M-4 597L-4 724L456 724L456 597L-4 597Z"  horiz-adv-x="595" vert-adv-y="2048"  />

      
      <glyph glyph-name="uni2e" unicode="&#x2e;" d="M54 0Q8 0 4 52L4 121Q4 168 54 173L123 173Q169 173 173 121L173 52Q173 5 123 0L54 0Z"  horiz-adv-x="320" vert-adv-y="2048"  />

      
      <glyph glyph-name="uni2f" unicode="&#x2f;" d="M713 1437L564 1068L212 198L149 42L135 6L2 6L58 145L149 371L501 1242L565 1399L580 1437L713 1437Z"  horiz-adv-x="816" vert-adv-y="2048"  />

      
      <glyph glyph-name="uni30" unicode="&#x30;" d="M366 1439Q469 1439 552.50 1388.50Q636 1338 685.50 1251.50Q735 1165 735 1059L735 383Q735 277 685.50 191Q636 105 552.50 54Q469 3 366 3Q263 3 179.50 54Q96 105 46.50 191Q-3 277-3 383L-3 1059Q-3 1165 46.50 1251.50Q96 1338 179.50 1388.50Q263 1439 366 1439M612 383L612 1059Q612 1162 539 1237.50Q466 1313 366 1313Q266 1313 193 1237.50Q120 1162 120 1059L120 383Q120 280 193 205Q266 130 366 130Q466 130 539 205Q612 280 612 383Z"  horiz-adv-x="894" vert-adv-y="2048"  />

      
      <glyph glyph-name="uni31" unicode="&#x31;" d="M352 1439L352 7L230 7L230 1154Q160 1103 105 1081.50Q50 1060 4 1060L4 1186Q60 1186 112 1220.50Q164 1255 197 1312.50Q230 1370 230 1439L230 1439L352 1439Z"  horiz-adv-x="531" vert-adv-y="2048"  />

      
      <glyph glyph-name="uni32" unicode="&#x32;" d="M217 211L157 131L738 131L738 4L2 4L2 144L38 192L160 354L367 630L541 861L585 919Q616 977 616 1042L616 1059Q616 1162 542.50 1237.50Q469 1313 370 1313Q303 1313 247 1279Q191 1245 157 1191.50Q123 1138 123 1080L1 1080Q1 1161 42 1237.50Q83 1314 155 1368Q248 1439 370 1439Q491 1439 584 1368Q696 1285 729 1144Q738 1104 738 1059L738 1042Q738 920 672 826L654 801L653 800L580 701L217 211Z"  horiz-adv-x="889" vert-adv-y="2048"  />

      
      <glyph glyph-name="uni33" unicode="&#x33;" d="M572 744Q736 613 736 427L736 387Q736 290 695 210.50Q654 131 582 78Q488 6 367 6Q245 6 152 78Q80 132 38.50 208.50Q-3 285-3 366L120 366Q120 308 154 254.50Q188 201 244 167Q300 133 367 133Q466 133 539.50 208.50Q613 284 613 387L613 427Q613 528 544.50 601Q476 674 377 681L387 680L387 808L379 808Q478 816 545.50 889Q613 962 613 1061L613 1064Q613 1167 539.50 1242.50Q466 1318 367 1318Q300 1318 244 1284Q188 1250 154 1195.50Q120 1141 120 1082L120 1082L-3 1082L-3 1082Q-3 1165 38.50 1242Q80 1319 152 1373Q245 1444 367 1444Q488 1444 582 1373Q654 1320 695 1240Q736 1160 736 1064L736 1061Q736 876 572 744Z"  horiz-adv-x="894" vert-adv-y="2048"  />

      
      <glyph glyph-name="uni34" unicode="&#x34;" d="M737 502L849 502L849 376L737 376L737 3L614 3L614 376L-1 376L-1 517L158 759L485 1257L577 1397L604 1439L737 1439L737 502M614 502L614 1227L564 1151L139 502L614 502Z"  horiz-adv-x="1006" vert-adv-y="2048"  />

      
      <glyph glyph-name="uni35" unicode="&#x35;" d="M735 383Q735 287 693.50 207.50Q652 128 581 75Q487 3 366 3Q245 3 151 74Q80 128 38.50 205Q-3 282-3 363L120 363L120 363Q125 269 196.50 199.50Q268 130 366 130Q466 130 539 205Q612 280 612 383L612 590Q607 694 535.50 766Q464 838 366 838Q302 838 247.50 806Q193 774 159 724.50Q125 675 121 619L-3 619L-3 1439L697 1439L697 1313L120 1313L120 869Q244 964 366 964Q487 964 580 893Q652 840 693.50 760.50Q735 681 735 584L735 383Z"  horiz-adv-x="905" vert-adv-y="2048"  />

      
      <glyph glyph-name="uni36" unicode="&#x36;" d="M582 897Q654 844 695.50 764.50Q737 685 737 588L737 386Q737 290 695.50 210Q654 130 582 77Q489 5 367 5Q245 5 152 77Q80 130 38.50 209.50Q-3 289-3 386L-3 1064Q-3 1189 66 1285Q102 1337 152 1373Q245 1444 367 1444Q461 1444 538.50 1401.50Q616 1359 667 1285Q721 1204 731 1137L603 1137Q586 1210 519.50 1264Q453 1318 367 1318Q267 1318 193.50 1242.50Q120 1167 120 1064L120 874Q245 969 367 969Q489 969 582 897M614 386L614 594Q608 698 536.50 770Q465 842 367 842Q271 842 200 772.50Q129 703 121 603Q120 595 120 588L120 380Q125 276 196.50 204Q268 132 367 132Q467 132 540.50 207.50Q614 283 614 386Z"  horiz-adv-x="910" vert-adv-y="2048"  />

      
      <glyph glyph-name="uni37" unicode="&#x37;" d="M729 1297L699 1230L230 195L162 43L146 7L4 7L66 145L157 347L546 1210L592 1313L-4 1313L-4 1439L728 1439L729 1297Z"  horiz-adv-x="901" vert-adv-y="2048"  />

      
      <glyph glyph-name="uni38" unicode="&#x38;" d="M571 748Q735 616 735 431L735 384Q735 287 694 207.50Q653 128 581 75Q488 4 367 4Q245 4 152 75Q80 128 39 207.50Q-2 287-2 384L-2 431Q-2 616 162 748Q-1 878-2 1062Q5 1258 152 1368Q245 1439 367 1439Q488 1439 581 1368Q728 1258 735 1062Q734 878 571 748M613 384L613 431Q613 534 539.50 609Q466 684 367 684Q267 684 194 609Q121 534 121 431L121 384Q121 281 194 205.50Q267 130 367 130Q466 130 539.50 205.50Q613 281 613 384M367 811Q466 811 537.50 884Q609 957 613 1062Q609 1167 537.50 1240Q466 1313 367 1313Q268 1313 196 1240Q124 1167 121 1062Q125 957 196.50 884Q268 811 367 811Z"  horiz-adv-x="909" vert-adv-y="2048"  />

      
      <glyph glyph-name="uni39" unicode="&#x39;" d="M585 1368Q657 1315 698 1235Q739 1155 739 1059L739 382Q739 257 670 161Q635 110 585 73Q491 2 370 2Q276 2 199 44.50Q122 87 70 161Q16 242 7 309L134 309Q152 236 218 182.50Q284 129 370 129Q470 129 543.50 204.50Q617 280 617 382L617 572Q492 477 370 477Q249 477 156 548Q84 601 42.50 681Q1 761 1 858L1 1059Q1 1155 42 1234.50Q83 1314 155 1368Q249 1439 370 1439Q492 1439 585 1368M617 858L617 1065Q611 1169 540 1240.50Q469 1312 370 1312Q270 1312 197 1237Q124 1162 124 1059L124 851Q129 748 200.50 676Q272 604 370 604Q466 604 537 673Q608 742 616 843Q617 850 617 858Z"  horiz-adv-x="910" vert-adv-y="2048"  />

      
      <glyph glyph-name="uni3a" unicode="&#x3a;" d="M43 3Q2 3-1 48L-1 111Q-1 153 43 156L106 156Q146 156 150 111L150 48Q150 6 106 3L43 3M43 911Q2 911-1 957L-1 1020Q-1 1062 43 1065L106 1065Q146 1065 150 1020L150 957Q150 915 106 911L43 911Z"  horiz-adv-x="282" vert-adv-y="2048"  />

      
      <glyph glyph-name="uni3b" unicode="&#x3b;" d="M50 909Q10 909 7 953L7 1016Q7 1057 50 1060L112 1060Q152 1060 155 1016L155 953Q155 912 112 909L50 909M155 120L155 57Q155 46 151 38L148 33L147 31L65-120L55-120L89 10L51 13Q10 13 7 57L7 120Q7 161 50 164L112 164Q152 164 155 120Z"  horiz-adv-x="283" vert-adv-y="2048"  />

      
      <glyph glyph-name="uni3c" unicode="&#x3c;" d="M619 800L253 606L619 412L619 276L133 533L-4 606L133 679L619 936L619 800Z"  horiz-adv-x="822" vert-adv-y="2048"  />

      
      <glyph glyph-name="uni3d" unicode="&#x3d;" d="M3 869L3 979L657 979L657 869L3 869M3 523L3 634L657 634L657 523L3 523Z"  horiz-adv-x="838" vert-adv-y="2048"  />

      
      <glyph glyph-name="uni3e" unicode="&#x3e;" d="M-4 800L-4 936L482 679L619 606L482 533L-4 276L-4 412L362 606L-4 800Z"  horiz-adv-x="822" vert-adv-y="2048"  />

      
      <glyph glyph-name="uni3f" unicode="&#x3f;" d="M341 5Q308 5 306 41L306 95Q306 129 341 131L395 131Q428 131 430 95L430 41Q430 7 395 5L341 5M738 1029Q736 999 729 969Q696 827 583 744Q570 734 557 725Q519 704 490.50 682Q462 660 445.50 629Q429 598 429 548L429 301L306 301L306 595Q312 752 455 816Q456 816 457 817Q525 847 570 910.50Q615 974 615 1054L615 1063Q615 1142 570.50 1207Q526 1272 457 1300Q414 1317 368 1317Q322 1317 279 1300Q209 1271 164.50 1209Q120 1147 120 1083L-3 1083Q-3 1165 38.50 1242Q80 1319 152 1373Q213 1419 290 1436Q327 1444 368 1444Q408 1444 445 1436Q522 1419 583 1373Q696 1290 729 1148Q736 1118 738 1088L738 1029Z"  horiz-adv-x="879" vert-adv-y="2048"  />

      
      <glyph glyph-name="uni40" unicode="&#x40;" d="M366 1444L657 1444Q761 1444 845 1393.50Q929 1343 978 1256.50Q1027 1170 1027 1064L1027 385Q1021 281 921 262Q907 261 892 261Q866 261 842 266Q808 273 778 289L778 289Q740 307 692 362Q645 312 611 297Q611 297 610 297Q603 293 598 291Q591 287 585 285Q578 282 571 280Q564 278 557 276Q549 274 540 273Q536 272 532 271Q527 271 523 270Q517 269 512 269L480 269Q469 270 456 272Q417 279 387 295Q384 298 383.50 298Q383 298 386 296Q300 342 265 430Q260 442 256 455Q254 464 252 472L249 491Q246 508 246 528L246 621Q246 698 283 758Q320 818 383 851Q395 858 408 863Q449 880 497 880L641 880L641 961Q641 968 640 976Q633 1031 592 1070Q551 1109 497 1109Q441 1109 399 1069Q357 1029 354 984L246 984Q249 1065 318 1142Q390 1220 497 1220Q560 1220 608 1193Q611 1190 611 1190Q611 1190 609 1193Q674 1158 711.50 1098Q749 1038 749 961L749 505Q755 452 796 414Q837 376 904 371L904 1064Q904 1167 832 1243Q757 1318 657 1318L366 1318Q263 1315 191 1241Q119 1167 119 1064L119 386Q119 283 192.50 207.50Q266 132 366 132L637 132L637 5L366 5Q261 7 178 57Q95 107 45.50 193.50Q-4 280-4 386L-4 1064Q-4 1170 45.50 1256.50Q95 1343 179 1393.50Q263 1444 366 1444M641 525L641 769L497 769Q440 769 397 724.50Q354 680 354 621L354 528Q354 521 355 512Q360 469 385 436Q387 433 391 429L402 417Q406 414 409 411Q411 409 412 409Q417 405 422 402Q427 399 432 396Q437 393 442 391Q445 390 447 389L447 390Q453 387 457 386Q466 383 475 382Q479 381 485 381L510 381Q516 381 521 382Q523 382 526 383Q532 384 538 386Q544 388 550 390Q556 393 562 396Q573 402 584 410Q589 414 593 417Q607 430 616 445Q618 447 620 451Q623 455 626 462Q628 467 631 473Q632 477 634 482Q635 485 636 489Q637 492 638 497Q638 499 639 502Q639 506 640 510L640 517Q641 521 641 525Z"  horiz-adv-x="1200" vert-adv-y="2048"  />

      
      <glyph glyph-name="uni41" unicode="&#x41;" d="M508 1442L886 3L762 3L675 335L208 335L121 3L-3 3L337 1295Q356 1363 404 1402.50Q452 1442 508 1442M240 458L643 458L442 1223L240 458Z"  horiz-adv-x="1010" vert-adv-y="2048"  />

      
      <glyph glyph-name="uni42" unicode="&#x42;" d="M707 1059L707 1042Q707 947 679 868Q651 789 572 725Q736 594 736 409L736 384Q736 288 694.50 208.50Q653 129 582 76Q538 43 485 25Q479 23 472 21Q422 5 367 5L141 4L-1 4L-1 1439L338 1439Q399 1439 452 1420Q507 1402 553 1367Q625 1314 666 1235Q707 1156 707 1059M613 384L613 409Q613 512 540 587Q467 662 367 662Q354 662 341 663L120 663L120 617L121 617L121 132L347 132Q357 131 367 131Q378 131 388 132Q483 143 548 215Q613 287 613 384M584 1042L584 1059Q584 1158 517.50 1230.50Q451 1303 355 1312L121 1312L121 837L120 837L120 788L367 788Q435 788 483.50 823.50Q532 859 558 916.50Q584 974 584 1042Z"  horiz-adv-x="874" vert-adv-y="2048"  />

      
      <glyph glyph-name="uni43" unicode="&#x43;" d="M619 1077L619 1078Q619 1137 585.50 1191Q552 1245 496 1279Q440 1313 373 1313Q274 1313 200.50 1237.50Q127 1162 127 1060L127 385Q127 282 200.50 207Q274 132 373 132Q473 132 546 205.50Q619 279 619 373L619 373L742 373L742 373Q742 273 692.50 189.50Q643 106 559.50 56Q476 6 373 6Q270 6 186.50 56.50Q103 107 54 193Q5 279 5 385L5 1060Q5 1166 54 1252Q103 1338 186.50 1388.50Q270 1439 373 1439Q476 1439 559.50 1389Q643 1339 692.50 1257Q742 1175 742 1078L742 1077L619 1077Z"  horiz-adv-x="895" vert-adv-y="2048"  />

      
      <glyph glyph-name="uni44" unicode="&#x44;" d="M2 1439L371 1439Q474 1439 557.50 1388Q641 1337 690 1251Q739 1165 739 1059L739 384Q739 277 690 191Q641 105 557.50 54.50Q474 4 371 4Q360 4 350 4L2 4L2 1439M617 384L617 1059Q617 1162 544 1237Q471 1312 371 1312L124 1312L124 130L371 130Q471 130 544 205.50Q617 281 617 384Z"  horiz-adv-x="896" vert-adv-y="2048"  />

      
      <glyph glyph-name="uni45" unicode="&#x45;" d="M648 1314L124 1314L124 784L648 784L648 659L124 659L124 129L648 129L648 4L1 4L1 1439L648 1439L648 1314Z"  horiz-adv-x="812" vert-adv-y="2048"  />

      
      <glyph glyph-name="uni46" unicode="&#x46;" d="M647 1314L124 1314L124 785L646 785L646 660L124 660L124 6L1 6L1 1439L647 1439L647 1314Z"  horiz-adv-x="804" vert-adv-y="2048"  />

      
      <glyph glyph-name="uni47" unicode="&#x47;" d="M616 1081L616 1082Q616 1141 582 1195Q548 1249 492 1283.50Q436 1318 369 1318Q269 1318 195.50 1242.50Q122 1167 122 1064L122 386Q122 283 195.50 207.50Q269 132 369 132Q469 132 542.50 207.50Q616 283 616 386L616 662L397 662L397 788L739 788L739 386Q739 280 689.50 193.50Q640 107 556 56Q472 5 369 5Q266 5 182 56Q98 107 48.50 193.50Q-1 280-1 386L-1 1064Q-1 1170 48.50 1256.50Q98 1343 182 1393.50Q266 1444 369 1444Q472 1444 556 1394Q640 1344 689.50 1261.50Q739 1179 739 1082L739 1081L616 1081Z"  horiz-adv-x="905" vert-adv-y="2048"  />

      
      <glyph glyph-name="uni48" unicode="&#x48;" d="M609 1439L732 1439L732 7L609 7L609 660L118 660L118 7L-5 7L-5 1439L118 1439L118 785L609 785L609 1439Z"  horiz-adv-x="893" vert-adv-y="2048"  />

      
      <glyph glyph-name="uni49" unicode="&#x49;" d="M117 1439L117 6L-6 6L-6 1439L117 1439Z"  horiz-adv-x="270" vert-adv-y="2048"  />

      
      <glyph glyph-name="uni4a" unicode="&#x4a;" d="M739 1439L739 386Q739 280 690 194Q641 108 557.50 57.50Q474 7 371 7Q268 7 184.50 57Q101 107 52 190Q3 273 3 373L3 374L125 374L125 373Q125 280 198.50 206Q272 132 371 132Q471 132 544 207.50Q617 283 617 386L617 1439L739 1439Z"  horiz-adv-x="884" vert-adv-y="2048"  />

      
      <glyph glyph-name="uni4b" unicode="&#x4b;" d="M615 504L625 466L746 5L623 5L511 429L497 483L497 484Q449 591 337 628Q312 636 284 639L120 639L120 5L-3 5L-3 1439L120 1439L120 765L288 765Q360 774 415.50 819Q471 864 496 931L506 968L519 1016L566 1187L566 1190L567 1193L632 1439L755 1439L629 958L612 894Q611 891 610 887Q608 879 605 871Q584 821 551 779Q530 749 471 702Q529 655 550 626Q594 572 615 504Z"  horiz-adv-x="893" vert-adv-y="2048"  />

      
      <glyph glyph-name="uni4c" unicode="&#x4c;" d="M122 130L645 130L645 5L-1 5L-1 1439L122 1439L122 130Z"  horiz-adv-x="810" vert-adv-y="2048"  />

      
      <glyph glyph-name="uni4d" unicode="&#x4d;" d="M770 1454L751 1480L953 1439L953 3L830 3L830 1210L771 989L771 987L539 107L539 107Q481 108 434 147.50Q387 187 369 253L177 983L176 986L117 1212L117 3L-6 3L-6 1439L181 1439L235 1234L473 326L697 1178L698 1179L717 1254L723 1276L770 1454Z"  horiz-adv-x="1112" vert-adv-y="2048"  />

      
      <glyph glyph-name="uni4e" unicode="&#x4e;" d="M742 1439L742 7Q687 7 634.50 44.50Q582 82 554 148L128 1172L128 7L5 7L5 1439Q59 1439 111.50 1401.50Q164 1364 193 1298L619 276L619 1439L742 1439Z"  horiz-adv-x="906" vert-adv-y="2048"  />

      
      <glyph glyph-name="uni4f" unicode="&#x4f;" d="M375 1444Q478 1444 562 1393.50Q646 1343 695.50 1256.50Q745 1170 745 1064L745 386Q745 280 695.50 193.50Q646 107 562 56.50Q478 6 375 6Q271 6 187.50 56.50Q104 107 54.50 193.50Q5 280 5 386L5 1064Q5 1170 54.50 1256.50Q104 1343 187.50 1393.50Q271 1444 375 1444M622 386L622 1064Q622 1167 548.50 1242.50Q475 1318 375 1318Q275 1318 201.50 1242.50Q128 1167 128 1064L128 386Q128 283 201.50 207.50Q275 132 375 132Q475 132 548.50 207.50Q622 283 622 386Z"  horiz-adv-x="912" vert-adv-y="2048"  />

      
      <glyph glyph-name="uni50" unicode="&#x50;" d="M664 1280Q733 1185 733 1060L733 827Q733 702 664 606Q629 555 579 519Q486 448 365 448L119 448L119 6L-3 6L-3 1439L365 1439Q486 1439 579 1368Q629 1332 664 1280M611 827L611 1060Q611 1163 538 1238Q465 1313 365 1313L119 1313L119 574L365 574Q465 574 538 649Q611 724 611 827Z"  horiz-adv-x="888" vert-adv-y="2048"  />

      
      <glyph glyph-name="uni51" unicode="&#x51;" d="M678 179L808 6L653 6L594 85Q486 6 368 6Q265 6 181 56.50Q97 107 47.50 193.50Q-2 280-2 386L-2 1064Q-2 1170 47.50 1256.50Q97 1343 181 1393.50Q265 1444 368 1444Q471 1444 555 1393.50Q639 1343 688.50 1256.50Q738 1170 738 1064L738 386Q738 278 678 179M615 386L615 1064Q615 1167 541.50 1242.50Q468 1318 368 1318Q268 1318 194.50 1242.50Q121 1167 121 1064L121 386Q121 283 194.50 207.50Q268 132 368 132Q440 132 501 172Q583 228 608 329Q615 357 615 386Z"  horiz-adv-x="928" vert-adv-y="2048"  />

      
      <glyph glyph-name="uni52" unicode="&#x52;" d="M670 606Q634 554 585 518Q571 506 519 478Q538 458 546 449.50Q554 441 558 435Q601 381 623 313L633 275L703 5L580 5L519 239L505 292Q456 400 345 438Q326 444 304 447L124 447L124 5L2 5L2 1439L371 1439Q492 1439 585 1368Q634 1331 670 1280Q678 1269 685 1257Q721 1198 733 1127Q739 1095 739 1060L739 826Q739 701 670 606M124 573L371 573Q470 573 543 648.50Q616 724 616 826L616 1060Q616 1097 606 1132Q582 1211 517 1262Q452 1313 371 1313L124 1313L124 573Z"  horiz-adv-x="906" vert-adv-y="2048"  />

      
      <glyph glyph-name="uni53" unicode="&#x53;" d="M592 726L605 763Q663 683 699.50 600.50Q736 518 736 425L736 385Q736 289 695 209Q654 129 581 76Q488 4 366 4Q244 4 151 76Q79 130 37.50 206.50Q-4 283-4 365L119 365Q119 306 153 252.50Q187 199 243.50 165Q300 131 366 131Q466 131 539.50 206.50Q613 282 613 385L613 425Q613 525 544 598.50Q475 672 375 679Q371 679 366 679Q362 679 358 679Q240 683 151 750Q145 754 140 758Q73 812 34.50 889.50Q-4 967-4 1060L-4 1063Q-4 1160 37.50 1240Q79 1320 151 1373Q244 1444 366 1444Q488 1444 581 1373Q654 1319 695 1242Q736 1165 736 1084L613 1084Q613 1142 579 1195.50Q545 1249 489 1283.50Q433 1318 366 1318Q266 1318 192.50 1242Q119 1166 119 1063L119 1060Q119 959 188 886Q257 813 357 806Q362 806 366 806Q371 806 375 806Q492 802 582 734Q587 730 592 726Z"  horiz-adv-x="900" vert-adv-y="2048"  />

      
      <glyph glyph-name="uni54" unicode="&#x54;" d="M742 1439L742 1313L435 1313L435 8L312 8L312 1313L5 1313L5 1439L742 1439Z"  horiz-adv-x="915" vert-adv-y="2048"  />

      
      <glyph glyph-name="uni55" unicode="&#x55;" d="M737 1439L737 383Q737 276 688 190Q639 104 555 53Q471 2 368 2Q265 2 181.50 53Q98 104 49 189.50Q0 275-1 382L-1 1438L122 1438L122 383Q122 280 195 204.50Q268 129 368 129Q468 129 541.50 204.50Q615 280 615 383L615 1439L737 1439Z"  horiz-adv-x="900" vert-adv-y="2048"  />

      
      <glyph glyph-name="uni56" unicode="&#x56;" d="M2 1439L125 1439L445 224L764 1439L888 1439L549 151Q530 84 482 44.50Q434 5 379 5L2 1439Z"  horiz-adv-x="1036" vert-adv-y="2048"  />

      
      <glyph glyph-name="uni57" unicode="&#x57;" d="M1252 1439L967 157Q950 86 901.50 44.50Q853 3 796 3L624 778L485 155Q468 86 420 44.50Q372 3 315 3L-4 1439L122 1439L383 264L556 1043L690 1043L688 1057L865 261L1127 1439L1252 1439Z"  horiz-adv-x="1387" vert-adv-y="2048"  />

      
      <glyph glyph-name="uni58" unicode="&#x58;" d="M652 506L662 468L783 8L660 8L548 431L534 485L534 486Q497 575 398 622Q300 575 263 486L262 485L248 431L137 8L14 8L135 468L145 506Q166 574 209 628Q215 635 220 641Q237 663 289 704Q237 745 220 767Q214 774 209 781Q176 822 155 872Q152 880 150 888Q149 892 148 895L131 959L5 1439L128 1439L193 1194L194 1188L241 1017L254 969L264 933Q299 837 398 786Q498 837 533 933L543 969L556 1017L603 1188L604 1194L669 1439L792 1439L665 959L649 895Q648 892 647 888Q645 880 641 872Q621 822 588 781Q583 774 576 767Q559 745 508 704Q559 663 576 641Q582 635 587 628Q630 574 652 506Z"  horiz-adv-x="957" vert-adv-y="2048"  />

      
      <glyph glyph-name="uni59" unicode="&#x59;" d="M665 1439L788 1439L662 959L645 894Q644 893 643 888Q641 880 638 872Q617 822 584 780Q579 773 573 766Q557 748 539 733Q535 729 531 725Q528 723 524 719Q501 699 456 668L456 7L333 7L333 668Q317 679 305.50 687Q294 695 289 699Q284 703 285 701L286 702Q253 729 252 730Q247 735 242 740Q229 752 216 766Q210 774 205 781Q172 822 151 872Q148 879 146 889Q144 892 144 894L127 959L1 1439L124 1439L189 1193L190 1187L237 1017L250 969L260 932Q294 836 395 786Q494 836 529 932L539 969L552 1017L599 1188L599 1190L600 1194L665 1439Z"  horiz-adv-x="925" vert-adv-y="2048"  />

      
      <glyph glyph-name="uni5a" unicode="&#x5a;" d="M742 1296L138 130L742 130L742 3L3 3L3 145L608 1311L3 1311L3 1438L742 1438L742 1296Z"  horiz-adv-x="888" vert-adv-y="2048"  />

      
      <glyph glyph-name="uni5b" unicode="&#x5b;" d="M125 1313L125 133L422 133L422 7L2 7L2 1439L422 1439L422 1313L125 1313Z"  horiz-adv-x="580" vert-adv-y="2048"  />

      
      <glyph glyph-name="uni5c" unicode="&#x5c;" d="M2 1437L135 1437L150 1399L213 1242L565 371L657 145L713 6L580 6L566 42L503 198L151 1068L59 1295L2 1437Z"  horiz-adv-x="830" vert-adv-y="2048"  />

      
      <glyph glyph-name="uni5d" unicode="&#x5d;" d="M299 1313L2 1313L2 1439L422 1439L422 7L2 7L2 133L299 133L299 1313Z"  horiz-adv-x="585" vert-adv-y="2048"  />

      
      <glyph glyph-name="uni5e" unicode="&#x5e;" d="M564 1536L564 1441L283 1563L0 1440L0 1535L130 1592L283 1658L437 1592L564 1536Z"  horiz-adv-x="697" vert-adv-y="2048"  />

      
      <glyph glyph-name="uni5f" unicode="&#x5f;" d="M-4-241L-4-115L939-115L939-241L-4-241Z"  horiz-adv-x="944" vert-adv-y="2048"  />

      
      <glyph glyph-name="uni60" unicode="&#x60;" d="M1 1577Q1 1620 46 1624L110 1624Q152 1624 156 1577L156 1513Q156 1470 110 1466L99 1425L149 1281L107 1281L10 1485Q9 1486 8 1488L6 1493Q1 1501 1 1513L1 1577Z"  horiz-adv-x="982" vert-adv-y="2048"  />

      
      <glyph glyph-name="uni61" unicode="&#x61;" d="M415 1039Q486 1001 528 933Q570 865 570 779L570 2L444 2L443 49Q357 2 286 2Q216 2 158 34Q87 72 45 140Q3 208 3 294L3 398Q3 485 45 552.50Q87 620 158 658Q171 666 185 671Q232 690 286 690L444 690L444 794Q436 856 391 898.50Q346 941 286 941Q224 941 177.50 897Q131 853 129 802L3 802Q5 874 42 934.50Q79 995 143 1033Q207 1071 286 1071Q357 1071 415 1039M444 278L444 561L286 561Q223 561 175.50 512.50Q128 464 128 398L128 294Q128 229 175.50 180Q223 131 286 131Q346 131 391 174Q436 217 444 278M424 561Z"  horiz-adv-x="707" vert-adv-y="2048"  />

      
      <glyph glyph-name="uni62" unicode="&#x62;" d="M286 5Q168 5 86.50 89Q5 173 5 294L5 1437L130 1437L130 1065L286 1065Q337 1065 373.50 1051.50Q410 1038 442 1016Q456 1004 463 1001Q503 967 532 916Q561 865 567 795L567 788L567 294Q567 173 485.50 89Q404 5 286 5M281 135Q344 135 391 183.50Q438 232 438 297L438 778Q438 842 391 890.50Q344 939 281 939L125 939L125 280Q133 219 177.50 177Q222 135 281 135Z"  horiz-adv-x="666" vert-adv-y="2048"  />

      
      <glyph glyph-name="uni63" unicode="&#x63;" d="M283 136Q346 136 393 181.50Q440 227 440 276L563 276Q563 206 526 144.50Q489 83 425.50 45.50Q362 8 283 8Q165 8 84 91.50Q3 175 3 297L3 777Q3 898 84 981.50Q165 1065 283 1065Q362 1065 425.50 1027.50Q489 990 526 929Q563 868 563 797L440 797Q440 846 393 892Q346 938 283 938Q220 938 173.50 889.50Q127 841 127 777L127 297Q127 232 173.50 184Q220 136 283 136Z"  horiz-adv-x="705" vert-adv-y="2048"  />

      
      <glyph glyph-name="uni64" unicode="&#x64;" d="M286 5Q168 5 86.50 89Q5 173 5 294L5 788L6 795Q12 865 40.50 916Q69 967 110 1001Q116 1004 130 1016Q162 1038 198.50 1051.50Q235 1065 286 1065L442 1065L442 1437L567 1437L567 294Q567 173 486 89Q405 5 286 5M291 135Q350 135 394.50 177Q439 219 447 280L447 939L291 939Q228 939 181 890.50Q134 842 134 778L134 297Q134 232 181 183.50Q228 135 291 135Z"  horiz-adv-x="701" vert-adv-y="2048"  />

      
      <glyph glyph-name="uni65" unicode="&#x65;" d="M281 1071Q400 1071 481.50 986.50Q563 902 563 780L563 437L124 437L124 298Q124 233 171 184.50Q218 136 281 136Q344 136 391 182Q438 228 438 280L438 280L563 280L563 280Q563 207 525.50 145Q488 83 424 45Q360 7 281 7Q162 7 80.50 91.50Q-1 176-1 298L-1 780Q-1 902 80.50 986.50Q162 1071 281 1071M438 565L438 780Q438 845 391 893.50Q344 942 281 942Q218 942 171 893.50Q124 845 124 780L124 565L438 565Z"  horiz-adv-x="737" vert-adv-y="2048"  />

      
      <glyph glyph-name="uni66" unicode="&#x66;" d="M219 960L494 960L494 831L219 831L219 5L94 5L94 831L7 831L7 960L94 960L94 1153Q94 1233 130 1297.50Q166 1362 229 1402Q294 1444 376 1444Q455 1444 518.50 1407Q582 1370 619 1310Q656 1250 658 1179L533 1179Q529 1230 483.50 1273Q438 1316 376 1316Q317 1316 272 1274Q227 1232 219 1170L219 960Z"  horiz-adv-x="689" vert-adv-y="2048"  />

      
      <glyph glyph-name="uni67" unicode="&#x67;" d="M430 1026Q493 986 529 922Q565 858 565 778L565-82Q565-204 483.50-288.50Q402-373 283-373Q204-373 140-335Q76-297 38.50-235.50Q1-174 1-103L1-102L126-102L126-103Q126-106 130-121Q134-136 141-152Q160-192 199-218Q238-244 283-244Q346-244 393.50-195.50Q441-147 441-82L441 5L283 5Q249 5 217 13Q184 21 155 37Q146 41 138 46Q132 50 125 55Q125 55 124 56Q122 57 120 59Q113 64 108 68L107 68Q100 75 94 80L90 84Q84 89 79 95Q72 102 66 110Q60 117 54 126Q49 134 44 142Q42 145 40 149Q31 163 25 179Q23 182 22 186Q14 204 10 224L7 236Q5 243 4 251Q3 257 3 264Q2 270 2 276Q1 280 1 282L1 778Q1 900 82.50 984.50Q164 1069 283 1069Q365 1069 430 1026M440 133L440 795Q432 856 387 898Q342 940 283 940Q220 940 173 891.50Q126 843 126 778L126 295Q126 230 173 181.50Q220 133 283 133L440 133Z"  horiz-adv-x="710" vert-adv-y="2048"  />

      
      <glyph glyph-name="uni68" unicode="&#x68;" d="M567 5L441 5L441 290Q442 295 442 300L442 785Q442 791 441 796Q436 860 390.50 904Q345 948 284 948L126 948L126 5L0 5L0 1433L126 1433L126 1077L284 1077Q354 1077 412 1045Q484 1008 525.50 940Q567 872 567 785L567 5Z"  horiz-adv-x="733" vert-adv-y="2048"  />

      
      <glyph glyph-name="uni69" unicode="&#x69;" d="M-3 3L-3 1073L122 1073L122 3L-3 3M31 1240Q-2 1240-4 1276L-4 1330Q-4 1364 31 1366L85 1366Q118 1366 120 1330L120 1276Q120 1242 85 1240L31 1240Z"  horiz-adv-x="298" vert-adv-y="2048"  />

      
      <glyph glyph-name="uni6a" unicode="&#x6a;" d="M251 1071L251-111Q244-234 163.50-314Q83-394-34-394Q-114-394-178.50-356Q-243-318-281-256Q-319-194-319-122L-319-120L-193-120L-193-122Q-193-124-188.50-139.50Q-184-155-177-171Q-158-212-119-238Q-80-264-34-264Q27-264 72.50-220Q118-176 124-113Q125-107 125-100L125-13L124-13L124 1071L251 1071M159 1231Q126 1231 124 1267L124 1321Q124 1355 159 1357L213 1357Q246 1357 247 1321L247 1267Q247 1233 213 1231L159 1231Z"  horiz-adv-x="401" vert-adv-y="2048"  />

      
      <glyph glyph-name="uni6b" unicode="&#x6b;" d="M422 403L587 4L451 4L321 317L304 358L300 370Q263 443 183 461L181 461Q168 463 157 463Q153 463 129 461L129 4L3 4L3 1433L129 1433L129 589L157 589Q169 589 181 591L183 592Q262 609 299 681L305 695L321 736L459 1069L596 1069L422 650L414 629L413 628Q397 591 370 560Q366 555 359.50 548.50Q353 542 337 526Q353 511 359.50 504Q366 497 370 493Q397 461 414 423L422 405L422 403Z"  horiz-adv-x="736" vert-adv-y="2048"  />

      
      <glyph glyph-name="uni6c" unicode="&#x6c;" d="M120 1422L120 6L-1 6L-1 1422L120 1422Z"  horiz-adv-x="269" vert-adv-y="2048"  />

      
      <glyph glyph-name="uni6d" unicode="&#x6d;" d="M784 817Q784 817 787 776L787 2L663 2L663 776Q663 780 663 780Q663 786 663 787Q663 791 662 791Q661 807 661 807Q661 806 660 810Q657 820 653 834Q653 835 652 837Q649 842 646 850Q617 905 560 928Q534 937 507 937L497 937Q489 937 458 931L458 3L458 3L458 2L334 2L334 776Q334 780 334 780Q334 786 334 787L333 791L332 807L329 815L329 819Q328 821 327 824Q326 827 324 834Q324 835 323 837Q321 842 317 850Q289 902 237 925Q235 926 231 928Q205 937 178 937L169 937L169 938L124 938L124 3L0 3L0 1065L139 1065L139 1065L183 1065Q267 1065 344 1013Q379 1036 402 1044Q403 1045 405 1045Q425 1054 445 1058Q468 1064 492 1065Q499 1065 507 1065Q554 1065 594 1050Q600 1048 606 1046Q613 1044 619 1040Q627 1037 634 1033Q640 1030 646 1027Q667 1015 685 999Q694 991 703 982Q713 972 720 963Q724 959 727 955Q729 952 731 949Q736 943 738 939Q740 937 740 936Q745 928 750 921Q753 915 756 908Q772 877 780 841Q781 836 782 831Q783 824 784 817Z"  horiz-adv-x="954" vert-adv-y="2048"  />

      
      <glyph glyph-name="uni6e" unicode="&#x6e;" d="M402 1039Q402 1039 425.50 1023Q449 1007 479 974.50Q509 942 532.50 893.50Q556 845 556 780L556 3L431 3L431 288L431 791Q426 854 380.50 898Q335 942 274 942L117 942L117 3L-8 3L-8 1070L131 1070L131 1071L274 1071Q344 1071 402 1039Z"  horiz-adv-x="704" vert-adv-y="2048"  />

      
      <glyph glyph-name="uni6f" unicode="&#x6f;" d="M285 1071Q404 1071 486 986.50Q568 902 568 779L568 295Q568 173 486 88.50Q404 4 285 4Q166 4 84 88.50Q2 173 2 295L2 779Q2 902 84 986.50Q166 1071 285 1071M442 295L442 779Q442 844 395 893Q348 942 285 942Q222 942 174.50 893Q127 844 127 779L127 295Q127 230 174.50 181.50Q222 133 285 133Q348 133 395 181.50Q442 230 442 295Z"  horiz-adv-x="713" vert-adv-y="2048"  />

      
      <glyph glyph-name="uni70" unicode="&#x70;" d="M283 1067Q402 1067 483.50 983Q565 899 565 777L564 275Q564 270 563 264Q563 257 562 251Q560 243 559 236L556 224Q551 204 544 186L541 179Q535 163 526 149Q524 145 522 142Q517 134 512 126Q506 118 500 110Q494 103 488 96L475 83Q474 82 472 80Q466 75 459 69L458 68Q453 64 447 59Q444 57 442 56Q441 55 441 55Q434 51 428 47Q420 42 411 37Q382 21 349 13Q318 5 283 5L127 5L127-367L2-367L2 777Q2 856 38 920.50Q74 985 137 1024Q202 1067 283 1067M441 295L441 777Q441 842 393.50 890.50Q346 939 283 939Q225 939 180 897Q135 855 127 794L127 133L283 133Q346 133 393.50 181.50Q441 230 441 295Z"  horiz-adv-x="719" vert-adv-y="2048"  />

      
      <glyph glyph-name="uni71" unicode="&#x71;" d="M432 1021Q494 981 530 917.50Q566 854 566 774L566-367L442-367L442 4L286 4Q251 4 220 12Q188 20 158 36Q150 41 141 46Q135 50 129 54Q128 54 127 55Q125 56 123 58Q116 63 111 67L111 68Q103 74 97 79Q95 81 94 83Q88 88 82 95Q76 102 70 109Q64 117 58 125Q52 133 47 141Q46 144 43 148Q35 162 29 178Q27 181 26 184Q18 203 14 222L11 235Q9 241 8 250Q7 256 7 263Q6 268 6 274L5 281Q5 288 5 294L5 774Q5 896 86.50 979.50Q168 1063 286 1063Q367 1063 432 1021M442 132L442 791Q434 852 389 894Q344 936 286 936Q223 936 176 887.50Q129 839 129 774L129 294Q129 229 176 180.50Q223 132 286 132L442 132Z"  horiz-adv-x="721" vert-adv-y="2048"  />

      
      <glyph glyph-name="uni72" unicode="&#x72;" d="M437 797Q437 846 390.50 892Q344 938 281 938Q218 938 171.50 889.50Q125 841 125 777L125 5L1 5L1 1064L125 1064L125 1018Q211 1065 281 1065Q360 1065 423 1027.50Q486 990 523.50 929Q561 868 561 797L437 797Z"  horiz-adv-x="652" vert-adv-y="2048"  />

      
      <glyph glyph-name="uni73" unicode="&#x73;" d="M432 792L432 792Q432 845 385.50 891.50Q339 938 276 938Q213 938 166.50 889.50Q120 841 120 777L120 771Q120 709 162 663Q204 617 264 610L286 610Q349 608 403 579Q439 560 468 532Q556 448 556 322L556 298Q556 212 514.50 145Q473 78 403 41Q346 9 276 9Q206 9 149 41Q79 79 37.50 143Q-4 207-4 277L120 277Q120 228 166.50 182Q213 136 276 136Q339 136 385.50 184.50Q432 233 432 298L432 322Q432 384 390 430Q348 476 287 483L266 483Q202 485 149 514Q113 533 84 562Q-4 645-4 771L-4 777Q-4 862 37.50 929Q79 996 149 1033Q206 1065 276 1065Q346 1065 403 1033Q473 996 514.50 931Q556 866 556 792L556 792L432 792Z"  horiz-adv-x="684" vert-adv-y="2048"  />

      
      <glyph glyph-name="uni74" unicode="&#x74;" d="M522 269L647 269Q645 198 608 138.50Q571 79 507.50 42Q444 5 366 5Q284 5 219 48Q157 87 120.50 151Q84 215 84 295L84 946L-2 946L-2 1074L84 1074L84 1439L209 1439L209 1074L483 1074L483 946L209 946L209 278Q217 217 262 175Q307 133 366 133Q427 133 472.50 176Q518 219 522 269Z"  horiz-adv-x="730" vert-adv-y="2048"  />

      
      <glyph glyph-name="uni75" unicode="&#x75;" d="M559 1064L559 7L278 7Q160 7 78.50 90.50Q-3 174-3 296L-3 1065L121 1065L121 296Q121 231 168 182.50Q215 134 278 134L435 134L435 1064L559 1064Z"  horiz-adv-x="709" vert-adv-y="2048"  />

      
      <glyph glyph-name="uni76" unicode="&#x76;" d="M2 1065L131 1065L361 226L591 1065L720 1065L473 163Q453 92 401.50 50.50Q350 9 292 9L295-6L2 1065Z"  horiz-adv-x="833" vert-adv-y="2048"  />

      
      <glyph glyph-name="uni77" unicode="&#x77;" d="M800 1068L928 1067L722 139Q707 76 664.50 39Q622 2 572 2L567 25L567 26L461 504L379 134Q365 74 323.50 38Q282 2 235 2L227 39L-1 1067L128 1067L293 325L392 773L531 773L632 315L800 1068Z"  horiz-adv-x="1024" vert-adv-y="2048"  />

      
      <glyph glyph-name="uni78" unicode="&#x78;" d="M493 406L494 404L658 9L523 9L395 319L378 361L373 372Q368 386 337 425Q306 386 301 372L296 361L279 319L151 9L16 9L180 404L180 406L188 425Q190 429 192 433Q208 466 232 494Q235 498 241.50 505Q248 512 264 527Q248 542 241.50 549Q235 556 232 560Q209 587 193 619Q190 624 189 628L188 629L180 650L8 1065L143 1065L279 735L296 694L302 680Q306 668 337 630Q368 668 372 680L378 694L395 735L531 1065L666 1065L494 650L486 629L485 628Q484 624 481 619Q465 587 442 560Q438 556 431.50 549Q425 542 410 527Q425 512 431.50 505Q438 498 442 494Q466 466 482 433Q484 429 486 425L493 406Z"  horiz-adv-x="827" vert-adv-y="2048"  />

      
      <glyph glyph-name="uni79" unicode="&#x79;" d="M435 1065L560 1065L560 296Q560 175 478.50 91Q397 7 279 7Q201 7 137.50 44.50Q74 82 37 143Q0 204 0 275L123 276Q123 276 127 259.50Q131 243 138 227Q157 187 195.50 161Q234 135 279 135Q342 135 389 183.50Q436 232 436 296L436 383L279 383Q245 383 214 391Q181 399 152 414L135 424Q129 428 123 432Q122 433 121 433Q119 434 117 436Q110 441 105 445L105 446Q97 452 91 458L76 473Q70 480 64 487Q58 495 52 503Q46 511 41 519Q40 522 37 526Q29 540 23 556Q21 559 20 562Q12 581 8 600L5 613Q3 619 2 628Q1 634 1 641Q0 646 0 653Q-1 656-1 658L-1 1065L123 1065L123 672Q123 607 170 558.50Q217 510 279 510L435 510L435 1065Z"  horiz-adv-x="705" vert-adv-y="2048"  />

      
      <glyph glyph-name="uni7a" unicode="&#x7a;" d="M566 134L566 6L2 6L2 149L18 178L164 446L394 869L431 937L2 937L2 1065L564 1065L564 922L548 893L402 627L171 204L132 134L566 134Z"  horiz-adv-x="703" vert-adv-y="2048"  />

      
      <glyph glyph-name="uni7c" unicode="&#x7c;" d="M72-95L0-95L0 1439L72 1439L72-95Z"  horiz-adv-x="237" vert-adv-y="2048"  />

      
      <glyph glyph-name="uni7e" unicode="&#x7e;" d="M10 609L10 737Q61 707 137 707Q188 707 237.50 721.50Q287 736 335 754.50Q383 773 429.50 787.50Q476 802 523 802Q591 802 649 765L649 636Q598 665 522 665Q471 665 421.50 651Q372 637 324.50 618.50Q277 600 230 585.50Q183 571 137 571Q69 571 10 609Z"  horiz-adv-x="803" vert-adv-y="2048"  />

      
      <glyph glyph-name="uniab" unicode="&#xab;" d="M275 81L183 81L77 453L4 713L77 973L183 1346L272 1346L113 713L275 81M478 169L403 169L313 489L250 713L313 937L403 1258L475 1258L338 713L478 169Z"  horiz-adv-x="626" vert-adv-y="2048"  />

      
      <glyph glyph-name="unib4" unicode="&#xb4;" d="M156 1392L156 1327Q156 1315 151 1307L148 1302Q147 1300 147 1300L49 1095L7 1095L58 1239L46 1239Q25 1269 13 1287.50Q1 1306 1 1327L1 1392Q1 1435 46 1439L110 1439Q152 1439 156 1392Z"  horiz-adv-x="288" vert-adv-y="2048"  />

      
      <glyph glyph-name="unibb" unicode="&#xbb;" d="M207 81L369 713L209 1346L299 1346L404 973L478 713L404 453L299 81L207 81M4 169L144 713L6 1258L78 1258L232 713L169 489L78 169L4 169Z"  horiz-adv-x="621" vert-adv-y="2048"  />

      
      <glyph glyph-name="uni0300" unicode="&#x0300;" d="M1 1577Q1 1620 46 1624L110 1624Q152 1624 156 1577L156 1513Q156 1470 110 1466L99 1425L149 1281L107 1281L10 1485Q9 1486 8 1488L6 1493Q1 1501 1 1513L1 1577Z"   vert-adv-y="2048"  />

      
      <glyph glyph-name="uni0301" unicode="&#x0301;" d="M156 1577L156 1513Q156 1501 151 1493L148 1488Q147 1486 147 1485L49 1281L7 1281L58 1425L46 1425Q25 1455 13 1473Q1 1491 1 1513L1 1577Q1 1620 46 1624L110 1624Q152 1624 156 1577Z"   vert-adv-y="2048"  />

      
      <glyph glyph-name="uni2013" unicode="&#x2013;" d="M-4 512L-4 639L790 639L790 512L-4 512Z"  horiz-adv-x="969" vert-adv-y="2048"  />

      
      <glyph glyph-name="uni2014" unicode="&#x2014;" d="M-4 512L-4 639L1415 639L1415 512L-4 512Z"  horiz-adv-x="1600" vert-adv-y="2048"  />

      
      <glyph glyph-name="uni2018" unicode="&#x2018;" d="M-7 1203L-7 1271Q-7 1284-2 1293L1 1298Q2 1300 2 1300L83 1442L94 1442L48 1321L109 1321Q154 1321 158 1271L158 1203Q158 1157 109 1153L42 1153Q-3 1153-7 1203Z"  horiz-adv-x="303" vert-adv-y="2048"  />

      
      <glyph glyph-name="uni2019" unicode="&#x2019;" d="M158 1392L158 1324Q158 1311 153 1302L150 1297Q149 1295 149 1295L68 1153L57 1153L103 1274L42 1274Q-3 1274-7 1324L-7 1392Q-7 1438 42 1442L109 1442Q154 1442 158 1392Z"  horiz-adv-x="293" vert-adv-y="2048"  />

      
      <glyph glyph-name="uni201A" unicode="&#x201A;" d="M168 111L168 43Q168 30 163 21L160 16Q159 14 159 14L78-128L67-128L113-7L52-7Q7-7 3 43L3 111Q3 157 52 161L119 161Q164 161 168 111Z"  horiz-adv-x="309" vert-adv-y="2048"  />

      
      <glyph glyph-name="uni201C" unicode="&#x201C;" d="M-7 1327L-7 1395Q-7 1407-2 1416L1 1422Q2 1424 2 1424L83 1566L94 1566L48 1445L109 1445Q154 1445 158 1395L158 1327Q158 1281 109 1276L42 1276Q-3 1276-7 1327M319 1328L319 1396Q319 1408 324 1417L327 1423Q328 1425 328 1425L409 1567L420 1567L374 1446L435 1446Q480 1446 484 1396L484 1328Q484 1282 435 1277L368 1277Q323 1277 319 1328Z"  horiz-adv-x="635" vert-adv-y="2048"  />

      
      <glyph glyph-name="uni201D" unicode="&#x201D;" d="M484 1393L484 1325Q484 1312 479 1303L476 1298Q475 1296 475 1296L394 1154L383 1154L429 1275L368 1275Q323 1275 319 1325L319 1393Q319 1439 368 1443L435 1443Q480 1443 484 1393M158 1392L158 1324Q158 1311 153 1302L150 1297Q149 1295 149 1295L68 1153L57 1153L103 1274L42 1274Q-3 1274-7 1324L-7 1392Q-7 1438 42 1442L109 1442Q154 1442 158 1392Z"  horiz-adv-x="870" vert-adv-y="2048"  />

      
      <glyph glyph-name="uni201E" unicode="&#x201E;" d="M490 118L490 50Q490 37 485 28L482 23Q481 21 481 21L400-121L389-121L435 0L374 0Q329 0 325 50L325 118Q325 164 374 168L441 168Q486 168 490 118M164 117L164 49Q164 36 159 27L156 22Q155 20 155 20L74-122L63-122L109-1L48-1Q3-1-1 49L-1 117Q-1 163 48 167L115 167Q160 167 164 117Z"  horiz-adv-x="630" vert-adv-y="2048"  />

      
      <glyph glyph-name="uni2026" unicode="&#x2026;" d="M54 0Q8 0 4 52L4 121Q4 168 54 173L123 173Q169 173 173 121L173 52Q173 5 123 0L54 0M374 0Q328 0 324 52L324 121Q324 168 374 173L443 173Q489 173 493 121L493 52Q493 5 443 0L374 0M705 1Q659 1 655 53L655 122Q655 169 705 174L774 174Q820 174 824 122L824 53Q824 6 774 1L705 1Z"  horiz-adv-x="983" vert-adv-y="2048"  />

      
      <glyph glyph-name="uni2044" unicode="&#x2044;" d="M713 1437L564 1068L212 198L149 42L135 6L2 6L58 145L149 371L501 1242L565 1399L580 1437L713 1437Z"  horiz-adv-x="837" vert-adv-y="2048"  />

      
      <glyph glyph-name="uni2215" unicode="&#x2215;" d="M713 1437L564 1068L212 198L149 42L135 6L2 6L58 145L149 371L501 1242L565 1399L580 1437L713 1437Z"  horiz-adv-x="837" vert-adv-y="2048"  />

      
      <glyph glyph-name="uni2116" unicode="&#x2116;" d="M742 1439L742 7Q687 7 634.50 44.50Q582 82 554 148L128 1172L128 7L5 7L5 1439Q59 1439 111.50 1401.50Q164 1364 193 1298L619 276L619 1439L742 1439M1045 1437Q1102 1437 1140.50 1397.50Q1179 1358 1179 1299L1179 1094Q1179 1035 1140.50 996Q1102 957 1045 957Q987 957 949 996Q911 1035 911 1094L911 1299Q911 1358 949 1397.50Q987 1437 1045 1437M1097 1094L1097 1299Q1097 1319 1080.50 1336Q1064 1353 1045 1353Q1025 1353 1009 1336Q993 1319 993 1299L993 1094Q993 1074 1009 1057.50Q1025 1041 1045 1041Q1064 1041 1080.50 1057.50Q1097 1074 1097 1094M898 666L898 829L1193 829L1193 666L898 666Z"  horiz-adv-x="1388" vert-adv-y="2048"  />

      
      <glyph glyph-name="uni2212" unicode="&#x2212;" d="M-4 512L-4 639L790 639L790 512L-4 512Z"  horiz-adv-x="934" vert-adv-y="2048"  />

      
      <glyph glyph-name="uni0410" unicode="&#x0410;" d="M498 1442L876 3L752 3L665 335L198 335L111 3L-13 3L327 1295Q346 1363 394 1402.50Q442 1442 498 1442M230 458L633 458L432 1223L230 458Z"  horiz-adv-x="969" vert-adv-y="2048"  />

      
      <glyph glyph-name="uni0411" unicode="&#x0411;" d="M664 838Q734 742 734 617L734 384Q734 258 665 163Q629 112 579 75Q486 4 365 4L-4 4L-4 1038L-4 1038L-4 1439L641 1439L641 1316L119 1316L119 997L365 997Q486 997 579 926Q629 890 664 838M611 384L611 617Q611 720 538 795.50Q465 871 365 871L119 871L119 130L365 130Q465 130 538 205.50Q611 281 611 384Z"  horiz-adv-x="870" vert-adv-y="2048"  />

      
      <glyph glyph-name="uni0412" unicode="&#x0412;" d="M707 1059L707 1042Q707 947 679 868Q651 789 572 725Q736 594 736 409L736 384Q736 288 694.50 208.50Q653 129 582 76Q538 43 485 25Q479 23 472 21Q422 5 367 5L141 4L-1 4L-1 1439L338 1439Q399 1439 452 1420Q507 1402 553 1367Q625 1314 666 1235Q707 1156 707 1059M613 384L613 409Q613 512 540 587Q467 662 367 662Q354 662 341 663L120 663L120 617L121 617L121 132L347 132Q357 131 367 131Q378 131 388 132Q483 143 548 215Q613 287 613 384M584 1042L584 1059Q584 1158 517.50 1230.50Q451 1303 355 1312L121 1312L121 837L120 837L120 788L367 788Q435 788 483.50 823.50Q532 859 558 916.50Q584 974 584 1042Z"  horiz-adv-x="854" vert-adv-y="2048"  />

      
      <glyph glyph-name="uni0413" unicode="&#x0413;" d="M649 1439L649 1317L127 1317L127 6L6 6L6 1439L649 1439Z"  horiz-adv-x="774" vert-adv-y="2048"  />

      
      <glyph glyph-name="uni0414" unicode="&#x0414;" d="M791 139L920 139L920-144L799-144L799 15L510 15Q497 14 483 14Q469 14 455 15L119 15L119-144L-3-144L-3 139L116 139L116 1062Q116 1158 157 1237Q198 1316 270 1368Q362 1439 482 1439L791 1439L791 139M670 139L670 1314L482 1314Q380 1311 309 1237.50Q238 1164 238 1062L238 139L670 139Z"  horiz-adv-x="1004" vert-adv-y="2048"  />

      
      <glyph glyph-name="uni0415" unicode="&#x0415;" d="M648 1314L124 1314L124 784L648 784L648 659L124 659L124 129L648 129L648 4L1 4L1 1439L648 1439L648 1314Z"  horiz-adv-x="800" vert-adv-y="2048"  />

      
      <glyph glyph-name="uni0416" unicode="&#x0416;" d="M852 1439L852 1038Q852 854 689 723Q852 592 852 407L852 6L729 6L729 407Q729 503 662.50 575Q596 647 487 661L487 6L364 6L364 661Q255 647 188 575Q121 503 121 407L121 6L-1 6L-1 407Q-1 592 162 723Q-1 854-1 1038L-1 1439L121 1439L121 1038Q121 942 188 870Q255 798 364 784L364 1439L487 1439L487 784Q596 798 662.50 870Q729 942 729 1038L729 1439L852 1439M368 659L354 618L368 659M468 660Z"  horiz-adv-x="994" vert-adv-y="2048"  />

      
      <glyph glyph-name="uni0417" unicode="&#x0417;" d="M575 731Q643 677 669 636Q738 540 738 416L738 388Q738 292 696.50 213Q655 134 584 81Q491 10 370 10Q249 10 157 81Q85 134 44 212.50Q3 291 3 385L3 385L125 385L125 385Q125 285 198 210Q271 135 370 135Q470 135 543 210.50Q616 286 616 388L616 416Q616 515 549 587Q482 659 385 668Q378 668 370 668L193 668L193 793L384 794Q481 802 548.50 874.50Q616 947 616 1046L616 1061Q616 1163 543 1238Q470 1313 370 1313Q271 1313 198 1239.50Q125 1166 125 1073L125 1073L3 1073L3 1073Q3 1247 157 1368Q249 1439 370 1439Q491 1439 584 1368Q655 1315 696.50 1236Q738 1157 738 1061L738 1046Q738 921 669 826Q643 785 575 731Z"  horiz-adv-x="849" vert-adv-y="2048"  />

      
      <glyph glyph-name="uni0418" unicode="&#x0418;" d="M744 1439L744 3L621 3L621 1169L194 145Q165 78 112.50 40.50Q60 3 5 3L5 1439L128 1439L128 272L555 1297Q584 1364 636.50 1401.50Q689 1439 744 1439Z"  horiz-adv-x="880" vert-adv-y="2048"  />

      
      <glyph glyph-name="uni0419" unicode="&#x0419;" d="M490 1658L543 1545Q513 1526 468.50 1514.50Q424 1503 373 1503Q321 1503 276 1515Q231 1527 200 1546L253 1660Q269 1649 302 1639Q335 1629 373 1629Q410 1629 442.50 1638.50Q475 1648 490 1658M742 5L619 5L619 1170L193 147Q164 80 111.50 42.50Q59 5 4 5L4 1440L127 1440L127 273L554 1298Q583 1365 635.50 1402.50Q688 1440 742 1440L742 5Z"  horiz-adv-x="880" vert-adv-y="2048"  />

      
      <glyph glyph-name="uni041A" unicode="&#x041A;" d="M615 504L625 466L746 5L623 5L511 429L497 483L497 484Q449 591 337 628Q312 636 284 639L120 639L120 5L-3 5L-3 1439L120 1439L120 765L288 765Q360 774 415.50 819Q471 864 496 931L506 968L519 1016L566 1187L566 1190L567 1193L632 1439L755 1439L629 958L612 894Q611 891 610 887Q608 879 605 871Q584 821 551 779Q530 749 471 702Q529 655 550 626Q594 572 615 504Z"  horiz-adv-x="886" vert-adv-y="2048"  />

      
      <glyph glyph-name="uni041B" unicode="&#x041B;" d="M876 5L753 5L434 1221L114 5L-9 5L330 1293Q349 1360 396.50 1399.50Q444 1439 500 1439L876 5Z"  horiz-adv-x="947" vert-adv-y="2048"  />

      
      <glyph glyph-name="uni041C" unicode="&#x041C;" d="M770 1454L751 1480L953 1439L953 3L830 3L830 1210L771 989L771 987L539 107L539 107Q481 108 434 147.50Q387 187 369 253L177 983L176 986L117 1212L117 3L-6 3L-6 1439L181 1439L235 1234L473 326L697 1178L698 1179L717 1254L723 1276L770 1454Z"  horiz-adv-x="1105" vert-adv-y="2048"  />

      
      <glyph glyph-name="uni041D" unicode="&#x041D;" d="M609 1439L732 1439L732 7L609 7L609 660L118 660L118 7L-5 7L-5 1439L118 1439L118 785L609 785L609 1439Z"  horiz-adv-x="886" vert-adv-y="2048"  />

      
      <glyph glyph-name="uni041E" unicode="&#x041E;" d="M375 1444Q478 1444 562 1393.50Q646 1343 695.50 1256.50Q745 1170 745 1064L745 386Q745 280 695.50 193.50Q646 107 562 56.50Q478 6 375 6Q271 6 187.50 56.50Q104 107 54.50 193.50Q5 280 5 386L5 1064Q5 1170 54.50 1256.50Q104 1343 187.50 1393.50Q271 1444 375 1444M622 386L622 1064Q622 1167 548.50 1242.50Q475 1318 375 1318Q275 1318 201.50 1242.50Q128 1167 128 1064L128 386Q128 283 201.50 207.50Q275 132 375 132Q475 132 548.50 207.50Q622 283 622 386Z"  horiz-adv-x="886" vert-adv-y="2048"  />

      
      <glyph glyph-name="uni041F" unicode="&#x041F;" d="M737 4L614 4L614 1059Q614 1162 541 1237.50Q468 1313 368 1313L122 1313L122 4L-1 4L-1 1438L137 1438L137 1439L368 1439Q490 1439 583 1368Q655 1315 696 1235Q737 1155 737 1059L737 4Z"  horiz-adv-x="875" vert-adv-y="2048"  />

      
      <glyph glyph-name="uni0420" unicode="&#x0420;" d="M664 1280Q733 1185 733 1060L733 827Q733 702 664 606Q629 555 579 519Q486 448 365 448L119 448L119 6L-3 6L-3 1439L365 1439Q486 1439 579 1368Q629 1332 664 1280M611 827L611 1060Q611 1163 538 1238Q465 1313 365 1313L119 1313L119 574L365 574Q465 574 538 649Q611 724 611 827Z"  horiz-adv-x="869" vert-adv-y="2048"  />

      
      <glyph glyph-name="uni0421" unicode="&#x0421;" d="M619 1077L619 1077Q619 1137 585.50 1191Q552 1245 496 1279Q440 1313 373 1313Q274 1313 200.50 1237.50Q127 1162 127 1060L127 385Q127 282 200.50 207Q274 132 373 132Q473 132 546 205.50Q619 279 619 373L619 373L742 373L742 373Q742 273 692.50 189.50Q643 106 559.50 56Q476 6 373 6Q270 6 186.50 56.50Q103 107 54 193Q5 279 5 385L5 1060Q5 1166 54 1252Q103 1338 186.50 1388.50Q270 1439 373 1439Q476 1439 559.50 1389Q643 1339 692.50 1256.50Q742 1174 742 1077L742 1077L619 1077Z"  horiz-adv-x="880" vert-adv-y="2048"  />

      
      <glyph glyph-name="uni0422" unicode="&#x0422;" d="M742 1439L742 1313L435 1313L435 8L312 8L312 1313L5 1313L5 1439L742 1439Z"  horiz-adv-x="859" vert-adv-y="2048"  />

      
      <glyph glyph-name="uni0423" unicode="&#x0423;" d="M617 1439L739 1439L739 385Q739 288 698 208.50Q657 129 585 76Q492 5 371 5Q249 5 156 76Q9 191 2 362L125 362L126 362Q128 302 161.50 249.50Q195 197 250 164Q305 131 371 131Q470 131 543.50 206.50Q617 282 617 385L617 629L371 629Q249 629 156 700Q84 754 43 833.50Q2 913 2 1009L2 1439L125 1439L125 1003Q130 899 201 827.50Q272 756 371 756L616 756L617 1439Z"  horiz-adv-x="881" vert-adv-y="2048"  />

      
      <glyph glyph-name="uni0424" unicode="&#x0424;" d="M174 740L174 743Q146 739 140 736Q134 733 135 732Q164 736 170 737.50Q176 739 174 740M787 740L787 747Q759 745 752.50 742.50Q746 740 747 736Q775 736 781.50 737.50Q788 739 787 740M755 1369Q828 1315 869 1235.50Q910 1156 910 1060L910 747Q910 743 910 739Q909 728 908 717L907 713L904 692Q903 686 901 680Q900 673 898 665Q898 664 897 661Q897 660 896 657Q894 652 893 647Q891 642 889 637Q887 630 885 623Q883 618 881 613Q879 609 877 604Q873 597 870 591Q870 590 868 587Q865 580 861 573Q812 485 729 433.50Q646 382 542 382L521 382L521 7L399 7L399 382Q204 387 104 511Q99 516 95 522Q90 527 86 533Q81 539 77 546Q71 555 65 564Q60 573 55 583L49 595Q47 598 46 602Q46 600 46 601Q40 615 35 628Q32 636 29 644Q28 648 27 652Q23 666 19 681L17 693L14 713L14 717Q13 722 13 727Q12 729 12 732Q12 737 12 741L11 1060Q11 1156 52 1235.50Q93 1315 165 1368L166 1369Q234 1419 320 1434Q349 1439 379 1439Q391 1439 402 1438L519 1438Q531 1439 542 1439Q573 1439 601 1434Q688 1419 754 1369Q756 1367 755 1369M399 509L399 1313Q334 1313 311 1303Q241 1281 193 1224Q145 1167 135 1091Q134 1083 134 1077Q133 1071 133 1065L133 762Q133 755 134 748L135 735Q135 733 135 731Q136 726 137 721Q151 638 209 580Q267 522 348 510Q354 509 365 508.50Q376 508 398 508L398 509L399 509M788 761L788 1060Q788 1068 787 1078Q787 1085 786 1092Q775 1167 727.50 1224Q680 1281 611 1303Q577 1313 542 1313L521 1313L521 508L542 508Q557 508 571 510Q656 522 715.50 583.50Q775 645 786 733Q787 739 787 746Q788 754 788 761Z"  horiz-adv-x="1062" vert-adv-y="2048"  />

      
      <glyph glyph-name="uni0425" unicode="&#x0425;" d="M652 506L662 468L783 8L660 8L548 431L534 485L534 486Q497 575 398 622Q300 575 263 486L262 485L248 431L137 8L14 8L135 468L145 506Q166 574 209 628Q215 635 220 641Q237 663 289 704Q237 745 220 767Q214 774 209 781Q176 822 155 872Q152 880 150 888Q149 892 148 895L131 959L5 1439L128 1439L193 1194L194 1188L241 1017L254 969L264 933Q299 837 398 786Q498 837 533 933L543 969L556 1017L603 1188L604 1194L669 1439L792 1439L665 959L649 895Q648 892 647 888Q645 880 641 872Q621 822 588 781Q583 774 576 767Q559 745 508 704Q559 663 576 641Q582 635 587 628Q630 574 652 506Z"  horiz-adv-x="911" vert-adv-y="2048"  />

      
      <glyph glyph-name="uni0426" unicode="&#x0426;" d="M864 136L864-147L742-147L742-9Q726 1 639 6Q552 11 466.50 12.50Q381 14 370 15L368 15Q282 15 209 52Q127 93 72 169Q63 182 56 195Q1 283 1 393L1 1439L123 1439L123 393Q123 298 186 224Q219 186 267 161Q315 136 369 136L613 136L613 1439L735 1439L735 136L864 136Z"  horiz-adv-x="982" vert-adv-y="2048"  />

      
      <glyph glyph-name="uni0427" unicode="&#x0427;" d="M613 1439L735 1439L735 7L613 7L613 630L367 630Q246 630 153 701Q81 754 40 833.50Q-1 913-1 1010L-1 1439L121 1439L121 1003Q127 900 198 828Q269 756 367 756L613 756L613 1439Z"  horiz-adv-x="875" vert-adv-y="2048"  />

      
      <glyph glyph-name="uni0428" unicode="&#x0428;" d="M778 1439L901 1439L901 384Q901 287 859.50 207.50Q818 128 746 75Q653 4 532 4L369 4Q248 4 154 75Q83 128 41.50 207.50Q0 287 0 384L0 1439L123 1439L123 369Q131 268 204.50 199Q278 130 389 130L389 1439L512 1439L512 130Q623 130 697 200Q771 270 778 371L778 1439Z"  horiz-adv-x="1046" vert-adv-y="2048"  />

      
      <glyph glyph-name="uni0429" unicode="&#x0429;" d="M899 132L1029 132L1029-153L907-153L907-14Q882 1 770.50 5Q659 9 577 9Q554 6 531 6Q520 6 510 7L389 7Q379 6 368 6Q247 6 154 77Q82 130 41 209.50Q0 289 0 386L0 1439L123 1439L123 371Q123 362 124 354Q137 260 209 196Q281 132 388 132L388 1439L511 1439L511 132L777 132L777 1439L899 1439L899 132Z"  horiz-adv-x="1142" vert-adv-y="2048"  />

      
      <glyph glyph-name="uni042A" unicode="&#x042A;" d="M727 838Q796 743 796 618L796 384Q796 259 727 163Q692 112 642 76Q549 5 428 5L59 5L59 1038L59 1038L59 1314L-101 1314L-101 1439L181 1439L181 997L428 997Q549 997 642 926Q692 890 727 838M674 384L674 618Q674 720 600.50 795.50Q527 871 428 871L181 871L181 131L428 131Q527 131 600.50 206Q674 281 674 384Z"  horiz-adv-x="918" vert-adv-y="2048"  />

      
      <glyph glyph-name="uni042B" unicode="&#x042B;" d="M888 1439L1011 1439L1011 4L888 4L888 1439M668 840Q737 744 737 618L737 384Q737 259 668 163Q633 112 583 76Q490 4 368 4L-1 4L-1 1441L122 1441L122 999L368 999Q490 999 583 927Q633 891 668 840M615 384L615 618Q615 721 541.50 796.50Q468 872 368 872L122 872L122 131L368 131Q468 131 541.50 206.50Q615 282 615 384Z"  horiz-adv-x="1161" vert-adv-y="2048"  />

      
      <glyph glyph-name="uni042C" unicode="&#x042C;" d="M671 838Q740 743 740 618L740 384Q740 259 671 163Q636 112 586 76Q493 5 372 5L3 5L3 1439L126 1439L126 997L372 997Q493 997 586 926Q636 890 671 838M618 384L618 618Q618 720 544.50 795.50Q471 871 372 871L126 871L126 131L372 131Q471 131 544.50 206Q618 281 618 384Z"  horiz-adv-x="875" vert-adv-y="2048"  />

      
      <glyph glyph-name="uni042D" unicode="&#x042D;" d="M370 1439Q473 1439 557 1388Q641 1337 690 1251Q739 1165 739 1059L739 383Q739 276 690 190Q641 104 557 53.50Q473 3 370 3Q267 3 183.50 53Q100 103 50.50 186.50Q1 270 1 371L1 371L124 371L124 371Q124 277 197 203Q270 129 370 129Q470 129 543.50 204.50Q617 280 617 383L617 658L175 658L175 783L617 783L617 1059Q617 1162 543.50 1237.50Q470 1313 370 1313Q304 1313 248 1278.50Q192 1244 158 1190Q124 1136 124 1077L124 1077L1 1077L1 1077Q1 1174 50.50 1256.50Q100 1339 183.50 1389Q267 1439 370 1439Z"  horiz-adv-x="870" vert-adv-y="2048"  />

      
      <glyph glyph-name="uni042E" unicode="&#x042E;" d="M730 1439Q833 1439 917 1388Q1001 1337 1050 1251Q1099 1165 1099 1059L1099 382Q1099 276 1050 189.50Q1001 103 917 52.50Q833 2 730 2Q627 2 543.50 52.50Q460 103 410.50 189.50Q361 276 361 382L361 658L124 658L124 3L1 3L1 1438L124 1438L124 783L361 783L361 1059Q361 1165 410.50 1251Q460 1337 543.50 1388Q627 1439 730 1439M977 382L977 1059Q977 1162 903.50 1237.50Q830 1313 730 1313Q630 1313 557 1237.50Q484 1162 484 1059L484 382Q484 279 557 203.50Q630 128 730 128Q830 128 903.50 203.50Q977 279 977 382Z"  horiz-adv-x="1242" vert-adv-y="2048"  />

      
      <glyph glyph-name="uni042F" unicode="&#x042F;" d="M746 1439L746 3L623 3L623 445L444 445Q422 442 402 436Q291 398 242 289L228 236L167 3L43 3L114 273L124 311Q146 379 189 433Q194 439 201.50 448Q209 457 228 476Q177 504 162 516Q113 553 77 604Q8 700 8 825L8 1059Q8 1094 14 1126Q26 1197 62 1256Q69 1269 77 1280Q113 1331 162 1368Q256 1439 377 1439L746 1439M623 571L623 1313L377 1313Q295 1313 230 1261.50Q165 1210 141 1132Q131 1096 131 1059L131 825Q131 722 204 646.50Q277 571 377 571L623 571Z"  horiz-adv-x="891" vert-adv-y="2048"  />

      
      <glyph glyph-name="uni0401" unicode="&#x0401;" d="M643 1314L121 1314L121 786L643 786L643 661L121 661L121 132L643 132L643 7L-2 7L-2 1439L643 1439L643 1314M212 1561L159 1561Q126 1561 124 1597L124 1651Q124 1685 159 1686L212 1686Q245 1686 247 1651L247 1597Q247 1563 212 1561M483 1561L429 1561Q396 1561 395 1597L395 1651Q395 1685 429 1686L483 1686Q516 1686 517 1651L517 1597Q517 1563 483 1561Z"  horiz-adv-x="811" vert-adv-y="2048"  />

      
      <glyph glyph-name="uni0430" unicode="&#x0430;" d="M415 1039Q486 1001 528 933Q570 865 570 779L570 2L444 2L443 49Q357 2 286 2Q216 2 158 34Q87 72 45 140Q3 208 3 294L3 398Q3 485 45 552.50Q87 620 158 658Q171 666 185 671Q232 690 286 690L444 690L444 794Q436 856 391 898.50Q346 941 286 941Q224 941 177.50 897Q131 853 129 802L3 802Q5 874 42 934.50Q79 995 143 1033Q207 1071 286 1071Q357 1071 415 1039M444 278L444 561L286 561Q223 561 175.50 512.50Q128 464 128 398L128 294Q128 229 175.50 180Q223 131 286 131Q346 131 391 174Q436 217 444 278M424 561M424 814M424 36Z"  horiz-adv-x="710" vert-adv-y="2048"  />

      
      <glyph glyph-name="uni0431" unicode="&#x0431;" d="M566 794L567 289Q567 165 485 80.50Q403-4 283-4Q200-4 135 39Q72 79 35.50 143.50Q-1 208-1 289L-1 1091Q-1 1112 2 1131Q16 1235 88 1304Q89 1304 89 1305Q112 1327 140 1344Q147 1348 155 1352Q207 1380 269 1384L376 1384L419 1387L419 1258L417 1258Q397 1254 376 1254L279 1254Q273 1254 267 1253Q212 1247 172.50 1206.50Q133 1166 126 1109Q125 1100 125 1091L125 1067L283 1067Q318 1067 349 1059Q382 1051 412 1035Q421 1030 429 1025Q435 1021 442 1017Q442 1016 443 1016Q445 1015 448 1013Q455 1008 460 1004L460 1003Q468 997 474 991Q476 989 477 988Q483 982 489 976Q495 969 502 961Q508 954 513 945Q519 937 524 929Q526 926 528 922Q537 908 543 892Q545 889 546 885Q554 866 558 847L561 834Q563 827 564 819Q565 813 565 806Q566 800 566 794M441 289L441 775Q441 840 393.50 889Q346 938 283 938L126 938L126 272Q134 210 179 168Q224 126 283 126Q346 126 393.50 174.50Q441 223 441 289Z"  horiz-adv-x="730" vert-adv-y="2048"  />

      
      <glyph glyph-name="uni0432" unicode="&#x0432;" d="M313 628M563 774L563 749Q563 704 559 665Q555 626 540 590.50Q525 555 491 522Q595 423 595 296L595 291Q595 205 553.50 137.50Q512 70 441 32Q384 0 313 0L31 0L31 1065L287 1065Q353 1063 409 1033Q480 996 521.50 928Q563 860 563 774M471 291L471 296Q471 360 426 407Q381 454 318 458Q315 458 313 458Q311 458 308 458L156 458L156 129L313 129Q376 129 423.50 177.50Q471 226 471 291M438 749L438 774Q438 837 394 884.50Q350 932 288 936L156 936L156 587L317 587Q382 591 410 639.50Q438 688 438 749M287 936M280 1065M309 628Z"  horiz-adv-x="779" vert-adv-y="2048"  />

      
      <glyph glyph-name="uni0433" unicode="&#x0433;" d="M120 1065L460 1065L460 937L120 937L120 5L-5 5L-5 1065L120 1065L120 1065Z"  horiz-adv-x="607" vert-adv-y="2048"  />

      
      <glyph glyph-name="uni0434" unicode="&#x0434;" d="M430 1026Q493 986 529 922Q565 858 565 778L565-82Q565-204 483.50-288.50Q402-373 283-373Q204-373 140-335Q76-297 38.50-235.50Q1-174 1-102L1-102L126-102L126-102Q126-105 130-120.50Q134-136 141-152Q160-192 199-218Q238-244 283-244Q346-244 393.50-195.50Q441-147 441-82L441 5L283 5Q249 5 217 13Q184 21 155 37Q146 41 138 46Q132 50 125 55Q125 55 124 56Q122 57 120 59Q113 64 108 68L107 68Q100 75 94 80L90 84Q84 89 79 95Q72 102 66 110Q60 117 54 126Q49 134 44 142Q42 145 40 149Q31 163 25 179Q23 182 22 186Q14 204 10 224L7 236Q5 243 4 251Q3 257 3 264Q2 270 2 276Q1 280 1 282L1 778Q1 900 82.50 984.50Q164 1069 283 1069Q365 1069 430 1026M440 133L440 795Q432 856 387 898Q342 940 283 940Q220 940 173 891.50Q126 843 126 778L126 295Q126 230 173 181.50Q220 133 283 133L440 133Z"  horiz-adv-x="720" vert-adv-y="2048"  />

      
      <glyph glyph-name="uni0435" unicode="&#x0435;" d="M281 1071Q400 1071 481.50 986.50Q563 902 563 780L563 437L124 437L124 298Q124 233 171 184.50Q218 136 281 136Q344 136 391 182Q438 228 438 280L438 280L563 280L563 280Q563 207 525.50 145Q488 83 424 45Q360 7 281 7Q162 7 80.50 91.50Q-1 176-1 298L-1 780Q-1 902 80.50 986.50Q162 1071 281 1071M438 565L438 780Q438 845 391 893.50Q344 942 281 942Q218 942 171 893.50Q124 845 124 780L124 565L438 565Z"  horiz-adv-x="720" vert-adv-y="2048"  />

      
      <glyph glyph-name="uni0436" unicode="&#x0436;" d="M690 1065L690 752Q690 627 587 528Q690 430 690 304L690 4L566 4L566 304Q566 363 523.50 409.50Q481 456 407 467L407 4L283 4L283 467Q210 456 167.50 409.50Q125 363 125 304L125 4L1 4L1 304Q1 430 104 528Q1 627 1 752L1 1065L125 1065L125 752Q125 693 167.50 647Q210 601 283 590L283 1060L407 1060L407 590Q481 601 523.50 647Q566 693 566 752L566 1065L690 1065Z"  horiz-adv-x="843" vert-adv-y="2048"  />

      
      <glyph glyph-name="uni0437" unicode="&#x0437;" d="M453 561Q558 461 558 334L558 295Q558 209 516 141.50Q474 74 404 36Q346 4 275 4Q204 4 146 36Q3 118-8 272L-8 272L117 272L117 271Q122 218 168 175.50Q214 133 275 133Q338 133 385.50 181.50Q433 230 433 295L433 342Q428 405 384.50 449Q341 493 279 496L156 496L156 625L279 625Q340 628 383.50 672Q427 716 433 779L433 780Q430 847 384 894.50Q338 942 275 942Q214 942 168.50 898Q123 854 117 794L117 794L-8 794L-8 793Q3 959 146 1039Q204 1071 275 1071Q346 1071 404 1039Q474 1001 515 935Q556 869 558 783Q558 661 453 561Z"  horiz-adv-x="704" vert-adv-y="2048"  />

      
      <glyph glyph-name="uni0438" unicode="&#x0438;" d="M565 3L442 3L442 782L186 152Q158 86 105.50 48Q53 10-1 10L-1 1065L122 1065L122 287L378 916Q406 983 458 1020.50Q510 1058 565 1058L565 3Z"  horiz-adv-x="786" vert-adv-y="2048"  />

      
      <glyph glyph-name="uni0439" unicode="&#x0439;" d="M567 5L444 5L444 785L187 154Q159 87 106.50 49.50Q54 12 0 12L0 1069L123 1069L123 289L380 920Q408 986 460 1024Q512 1062 567 1062L567 5M416 1356L476 1226Q441 1205 391.50 1191.50Q342 1178 285 1178Q227 1178 176.50 1192Q126 1206 91 1228L151 1357Q170 1344 206.50 1333Q243 1322 285 1322Q326 1322 362 1332.50Q398 1343 416 1356Z"  horiz-adv-x="742" vert-adv-y="2048"  />

      
      <glyph glyph-name="uni043A" unicode="&#x043A;" d="M417 404L418 402L582 5L447 5L318 317L301 358L296 370Q260 442 180 460L178 460Q166 462 154 462Q149 462 126 461L126 5L1 5L1 1065L126 1065L126 588L154 588Q166 588 177 590Q178 590 181 590Q259 608 295 679L301 693L455 1065L590 1065L418 648L410 627L409 626Q393 589 366 558Q362 554 355.50 547Q349 540 334 525Q349 510 355.50 503Q362 496 366 492Q393 460 410 423L417 404Z"  horiz-adv-x="720" vert-adv-y="2048"  />

      
      <glyph glyph-name="uni043B" unicode="&#x043B;" d="M707 3L577 3L346 846L115 3L-15 3L233 910Q254 981 305.50 1023Q357 1065 415 1065L412 1080L707 3Z"  horiz-adv-x="761" vert-adv-y="2048"  />

      
      <glyph glyph-name="uni043C" unicode="&#x043C;" d="M749 1065L749 6L625 6L625 761L441 77L444 92Q386 92 335 133.50Q284 175 263 246L125 763L125 6L1 6L1 1064L130 1064L375 270L620 1065L749 1065Z"  horiz-adv-x="881" vert-adv-y="2048"  />

      
      <glyph glyph-name="uni043D" unicode="&#x043D;" d="M560 1065L560 4L436 4L436 471L122 471L122 4L-2 4L-2 1065L122 1065L122 599L436 599L436 1065L560 1065Z"  horiz-adv-x="736" vert-adv-y="2048"  />

      
      <glyph glyph-name="uni043E" unicode="&#x043E;" d="M285 1071Q404 1071 486 986.50Q568 902 568 779L568 295Q568 173 486 88.50Q404 4 285 4Q166 4 84 88.50Q2 173 2 295L2 779Q2 902 84 986.50Q166 1071 285 1071M442 295L442 779Q442 844 395 893Q348 942 285 942Q222 942 174.50 893Q127 844 127 779L127 295Q127 230 174.50 181.50Q222 133 285 133Q348 133 395 181.50Q442 230 442 295Z"  horiz-adv-x="720" vert-adv-y="2048"  />

      
      <glyph glyph-name="uni043F" unicode="&#x043F;" d="M402 1039Q402 1039 425.50 1023Q449 1007 479 974.50Q509 942 532.50 893.50Q556 845 556 780L556 3L431 3L431 288L431 791Q426 854 380.50 898Q335 942 274 942L117 942L117 3L-8 3L-8 1070L131 1070L131 1071L274 1071Q344 1071 402 1039Z"  horiz-adv-x="725" vert-adv-y="2048"  />

      
      <glyph glyph-name="uni0440" unicode="&#x0440;" d="M283 1067Q402 1067 483.50 983Q565 899 565 777L564 275Q564 270 563 264Q563 257 562 251Q560 243 559 236L556 224Q551 204 544 186L541 179Q535 163 526 149Q524 145 522 142Q517 134 512 126Q506 118 500 110Q494 103 488 96L475 83Q474 82 472 80Q466 75 459 69L458 68Q453 64 447 59Q444 57 442 56Q441 55 441 55Q434 51 428 47Q420 42 411 37Q382 21 349 13Q318 5 283 5L127 5L127-367L2-367L2 777Q2 856 38 920.50Q74 985 137 1024Q202 1067 283 1067M441 295L441 777Q441 842 393.50 890.50Q346 939 283 939Q225 939 180 897Q135 855 127 794L127 133L283 133Q346 133 393.50 181.50Q441 230 441 295Z"  horiz-adv-x="726" vert-adv-y="2048"  />

      
      <glyph glyph-name="uni0441" unicode="&#x0441;" d="M283 136Q346 136 393 181.50Q440 227 440 276L563 276Q563 206 526 144.50Q489 83 425.50 45.50Q362 8 283 8Q165 8 84 91.50Q3 175 3 297L3 777Q3 898 84 981.50Q165 1065 283 1065Q362 1065 425.50 1027.50Q489 990 526 929Q563 868 563 797L440 797Q440 846 393 892Q346 938 283 938Q220 938 173.50 889.50Q127 841 127 777L127 297Q127 232 173.50 184Q220 136 283 136Z"  horiz-adv-x="719" vert-adv-y="2048"  />

      
      <glyph glyph-name="uni0442" unicode="&#x0442;" d="M548 1065L548 937L326 937L326 4L202 4L202 937L-17 937L-17 1065L548 1065Z"  horiz-adv-x="661" vert-adv-y="2048"  />

      
      <glyph glyph-name="uni0443" unicode="&#x0443;" d="M435 1065L560 1065L560 296Q560 175 478.50 91Q397 7 279 7Q201 7 137.50 45Q74 83 36.50 144Q-1 205-1 276L-1 276L123 276L123 276Q123 273 127 258Q131 243 138 227Q157 187 195.50 161Q234 135 279 135Q342 135 389 183.50Q436 232 436 296L436 383L279 383Q245 383 214 391Q181 399 152 414L135 424Q129 428 123 432Q122 433 121 433Q119 434 117 436Q110 441 105 445L105 446Q97 452 91 458L76 473Q70 480 64 487Q58 495 52 503Q46 511 41 519Q40 522 37 526Q29 540 23 556Q21 559 20 562Q12 581 8 600L5 613Q3 619 2 628Q1 634 1 641Q0 646 0 653Q-1 656-1 658L-1 1065L123 1065L123 672Q123 607 170 558.50Q217 510 279 510L435 510L435 1065Z"  horiz-adv-x="714" vert-adv-y="2048"  />

      
      <glyph glyph-name="uni0444" unicode="&#x0444;" d="M570 1034Q708 959 724 795L724 535Q724 450 682.50 382.50Q641 315 570 277Q569 276 567 276Q515 246 423 246L423 5L299 5L299 246Q209 246 158 275Q156 276 153 277Q16 351 0 514L0 776Q0 861 41.50 928.50Q83 996 153 1033Q155 1035 156 1035Q213 1065 279 1065L443 1065Q510 1065 565 1036Q568 1035 570 1034M299 373L299 938Q221 935 172.50 887.50Q124 840 124 776L124 518Q131 458 178 417Q225 376 299 373M600 535L600 791Q593 853 545.50 894.50Q498 936 423 937L423 374Q502 376 551 423.50Q600 471 600 535Z"  horiz-adv-x="870" vert-adv-y="2048"  />

      
      <glyph glyph-name="uni0445" unicode="&#x0445;" d="M473 406L474 404L638 9L503 9L375 319L358 361L353 372Q348 386 317 425Q286 386 281 372L276 361L259 319L131 9L-4 9L160 404L160 406L168 425Q170 429 172 433Q188 466 212 494Q215 498 221.50 505Q228 512 244 527Q228 542 221.50 549Q215 556 212 560Q189 587 173 619Q170 624 169 628L168 629L160 650L-12 1065L123 1065L259 735L276 694L282 680Q286 668 317 630Q348 668 352 680L358 694L375 735L511 1065L646 1065L474 650L466 629L465 628Q464 624 461 619Q445 587 422 560Q418 556 411.50 549Q405 542 390 527Q405 512 411.50 505Q418 498 422 494Q446 466 462 433Q464 429 466 425L473 406Z"  horiz-adv-x="791" vert-adv-y="2048"  />

      
      <glyph glyph-name="uni0446" unicode="&#x0446;" d="M555 141L672 141L672-81L550-81L550 14L276 14Q159 14 78 97Q-3 180-3 301L-3 1065L120 1065L120 301Q120 237 166.50 189Q213 141 276 141L432 141L432 1064L555 1064L555 141Z"  horiz-adv-x="778" vert-adv-y="2048"  />

      
      <glyph glyph-name="uni0447" unicode="&#x0447;" d="M436 1065L561 1065L561 6L436 6L436 382L280 382Q245 382 214 390Q181 398 152 413L135 423Q129 427 123 431L121 432Q119 434 117 436Q110 440 105 445L105 445Q97 451 91 457Q89 459 88 460L76 472Q70 479 64 487Q58 494 52 502Q46 510 41 518Q40 521 37 525Q29 539 23 555Q21 558 20 562Q12 580 8 600L5 612Q3 619 2 627Q1 633 1 640Q0 646 0 652L-1 659Q-1 665-1 671L-1 1065L123 1065L123 671Q123 606 170 557.50Q217 509 280 509L436 509L436 1065Z"  horiz-adv-x="715" vert-adv-y="2048"  />

      
      <glyph glyph-name="uni0448" unicode="&#x0448;" d="M726 1065L726 292Q726 206 684.50 139Q643 72 572 34Q514 2 444 2L280 2Q209 2 151 34Q81 72 39.50 139.50Q-2 207-2 293L-2 1065L122 1065L122 293Q122 228 172 179.50Q222 131 300 131L300 1065L424 1065L424 130Q500 130 548.50 175Q597 220 601 284L601 1065L726 1065Z"  horiz-adv-x="871" vert-adv-y="2048"  />

      
      <glyph glyph-name="uni0449" unicode="&#x0449;" d="M438 140M834 140L834-81L711-81L711 14L275 14Q205 14 148 46Q78 83 37 149.50Q-4 216-4 301L-4 1065L119 1065L119 451L119 301Q119 237 168 188.50Q217 140 295 140L295 1065L417 1065L418 140L593 140L593 1065L716 1065L716 140L834 140Z"  horiz-adv-x="918" vert-adv-y="2048"  />

      
      <glyph glyph-name="uni044A" unicode="&#x044A;" d="M461 744Q531 706 572.50 639Q614 572 614 486L614 295Q614 209 572.50 142Q531 75 461 37Q403 5 333 5L52 5L52 937L-50 937L-50 1065L176 1065L176 776L333 776Q403 776 461 744M490 295L490 486Q490 551 443 599.50Q396 648 333 648L176 648L176 133L333 133Q396 133 443 181.50Q490 230 490 295Z"  horiz-adv-x="773" vert-adv-y="2048"  />

      
      <glyph glyph-name="uni044B" unicode="&#x044B;" d="M409 744Q479 706 520.50 638.50Q562 571 562 486L562 294Q562 209 520.50 141.50Q479 74 409 36Q351 4 281 4L-1 4L-1 1065L123 1065L123 776L281 776Q351 776 409 744M438 294L438 486Q438 550 391 598.50Q344 647 281 647L123 647L123 133L281 133Q344 133 391 181.50Q438 230 438 294M675 1065L799 1065L799 4L675 4L675 1065Z"  horiz-adv-x="944" vert-adv-y="2048"  />

      
      <glyph glyph-name="uni044C" unicode="&#x044C;" d="M410 743Q481 706 522.50 638Q564 570 564 484L564 293Q564 207 522.50 139.50Q481 72 410 34Q353 2 282 2L0 2L0 1065L124 1065L124 775L282 775Q353 775 410 743M440 293L440 484Q440 549 392.50 598Q345 647 282 647L125 647L125 131L282 131Q345 131 392.50 179.50Q440 228 440 293Z"  horiz-adv-x="719" vert-adv-y="2048"  />

      
      <glyph glyph-name="uni044D" unicode="&#x044D;" d="M288 1071Q407 1071 489 986.50Q571 902 571 779L571 295Q571 172 489 88Q407 4 288 4Q208 4 144 42Q80 80 42.50 141.50Q5 203 5 275L130 275Q130 225 177.50 179Q225 133 288 133Q351 133 398.50 181.50Q446 230 446 295L446 456L174 456L174 585L446 585L446 779Q446 844 398.50 893Q351 942 288 942Q225 942 177.50 895.50Q130 849 130 800L5 800Q5 871 42.50 933Q80 995 144 1033Q208 1071 288 1071Z"  horiz-adv-x="715" vert-adv-y="2048"  />

      
      <glyph glyph-name="uni044E" unicode="&#x044E;" d="M545 1065Q663 1065 744.50 981Q826 897 826 776L826 294Q826 172 744.50 88.50Q663 5 545 5Q426 5 344.50 88.50Q263 172 263 294L263 455L124 455L124 6L0 6L0 1065L124 1065L124 583L263 583L263 776Q263 897 344.50 981Q426 1065 545 1065M701 294L701 776Q701 840 654 888.50Q607 937 545 937Q482 937 435 888.50Q388 840 388 776L388 294Q388 230 435 181.50Q482 133 545 133Q607 133 654 181.50Q701 230 701 294Z"  horiz-adv-x="977" vert-adv-y="2048"  />

      
      <glyph glyph-name="uni044F" unicode="&#x044F;" d="M304 1065L566 1065L566 5L442 5L442 294L356 294Q351 294 350 294L348 293Q268 276 232 203L227 192L150 5L15 5L111 235L112 237L119 256Q127 277 161 323Q3 422 3 584L3 775Q3 848 34 908Q76 990 156 1033Q185 1048 219.50 1056.50Q254 1065 304 1065L304 1065M442 422L442 937L284 937Q221 937 174 888.50Q127 840 127 775L127 584Q127 519 174 470.50Q221 422 284 422L442 422Z"  horiz-adv-x="694" vert-adv-y="2048"  />

      
      <glyph glyph-name="uni0451" unicode="&#x0451;" d="M282 1074Q402 1074 484 989.50Q566 905 566 782L566 437L124 437L124 297Q124 232 171.50 183.50Q219 135 282 135Q346 135 393 181.50Q440 228 440 280L440 280L566 280L566 280Q566 207 528 144.50Q490 82 426 44Q362 6 282 6Q163 6 81 90.50Q-1 175-1 297L-1 782Q-1 905 81 989.50Q163 1074 282 1074M440 566L440 782Q440 847 393 896Q346 945 282 945Q219 945 171.50 896Q124 847 124 782L124 566L440 566M161 1178L100 1178Q62 1178 59 1220L59 1281Q59 1320 100 1324L161 1324Q199 1324 202 1281L202 1220Q202 1181 161 1178M464 1178L404 1178Q366 1178 363 1220L363 1281Q363 1320 404 1324L464 1324Q503 1324 506 1281L506 1220Q506 1181 464 1178Z"  horiz-adv-x="732" vert-adv-y="2048"  />

      

  </font>
</defs>
</svg>
