<svg width="81" height="94" viewBox="0 0 81 94" fill="none" xmlns="http://www.w3.org/2000/svg">
<g id="Layer1000">
<path id="path2" fill-rule="evenodd" clip-rule="evenodd" d="M40.4996 0L0 23.3824L20.2473 35.0774L40.4996 23.3849V0Z" fill="#004C82"/>
<path id="path4" fill-rule="evenodd" clip-rule="evenodd" d="M40.4996 93.548L0 70.1656L20.2527 58.2299L40.505 69.9226L40.4996 93.548Z" fill="#004C82"/>
<path id="path6" fill-rule="evenodd" clip-rule="evenodd" d="M68.3318 54.0975L40.4992 70.1667L12.6665 54.0975L40.4992 38.0284L68.3318 54.0975Z" fill="#D3F2FB" stroke="#D3F2FB" stroke-width="0.216"/>
<path id="path8" fill-rule="evenodd" clip-rule="evenodd" d="M40.5003 23.3849V0L81 23.3824L60.7526 35.0775L40.5003 23.3849Z" fill="#002D4D"/>
<path id="path10" fill-rule="evenodd" clip-rule="evenodd" d="M40.5003 93.5479V70.1663L60.7526 58.4735L81 70.1654L40.5003 93.5479Z" fill="#002D4D"/>
<path id="path12" fill-rule="evenodd" clip-rule="evenodd" d="M32.919 13.1849L33.0137 42.362L40.4993 46.6839V17.5614L32.919 13.1849Z" fill="#8DC8D8" stroke="#8DC8D8" stroke-width="0.216"/>
<path id="path14" fill-rule="evenodd" clip-rule="evenodd" d="M53.1714 54.0943V24.8771L60.7518 29.2535V58.4727L53.1714 54.0943Z" fill="#8DC8D8" stroke="#8DC8D8" stroke-width="0.216"/>
<path id="path16" fill-rule="evenodd" clip-rule="evenodd" d="M68.3341 62.8526V30.6998L81.0012 23.3832V70.166L68.3341 62.8526Z" fill="#004C82"/>
<path id="path18" fill-rule="evenodd" clip-rule="evenodd" d="M0 70.166V23.3832L12.6669 30.6997V62.8514L0 70.166Z" fill="#002D4D"/>
<path id="path20" fill-rule="evenodd" clip-rule="evenodd" d="M27.8245 45.3435V30.7006L32.9526 27.7399L32.9892 42.3617L27.8245 45.3435Z" fill="#609FCC"/>
<path id="path22" fill-rule="evenodd" clip-rule="evenodd" d="M48.0723 42.4003L48.0762 27.7595L53.1703 30.7006V45.3435L48.0723 42.4003Z" fill="#609FCC"/>
<path id="path24" fill-rule="evenodd" clip-rule="evenodd" d="M40.5003 17.5614V46.6714L48.0743 42.4006L48.0806 13.1849L40.5003 17.5614Z" fill="white" stroke="white" stroke-width="0.216"/>
<path id="path26" fill-rule="evenodd" clip-rule="evenodd" d="M48.0796 13.1851L40.4993 17.5616L32.919 13.1851L40.4993 8.80859L48.0796 13.1851Z" fill="white" stroke="white" stroke-width="0.216"/>
<path id="path28" fill-rule="evenodd" clip-rule="evenodd" d="M20.2478 58.4728V29.2536L27.8281 24.8771V54.0944L20.2478 58.4728Z" fill="white" stroke="white" stroke-width="0.216"/>
<path id="path30" fill-rule="evenodd" clip-rule="evenodd" d="M60.7518 29.2537L53.1714 24.8773L60.7518 20.5007L68.3321 24.8772L60.7518 29.2537Z" fill="white" stroke="white" stroke-width="0.216"/>
<path id="path32" fill-rule="evenodd" clip-rule="evenodd" d="M20.2469 29.2537L12.6665 24.8773L20.2469 20.5007L27.8271 24.8772L20.2469 29.2537Z" fill="white" stroke="white" stroke-width="0.216"/>
<path id="path34" fill-rule="evenodd" clip-rule="evenodd" d="M12.6387 62.85L12.6676 24.8771L20.248 29.2535L20.219 75.2375L12.6387 62.85Z" fill="#8DC8D8" stroke="#8DC8D8" stroke-width="0.216"/>
<path id="path36" fill-rule="evenodd" clip-rule="evenodd" d="M68.3621 62.85L68.3331 24.8771L60.7527 29.2535L60.7817 75.2375L68.3621 62.85Z" fill="white" stroke="white" stroke-width="0.216"/>
</g>
</svg>
